<?xml version="1.0" encoding="UTF-8"?>
<svg version="1.1" xmlns="http://www.w3.org/2000/svg" width="1024" height="1024">
<path d="M0 0 C2.87113459 -0.18254348 5.63151658 -0.47891386 8.4765625 -0.86328125 C20.25843005 -2.24198157 31.96171654 -2.26870849 43.81103516 -2.20581055 C47.39102253 -2.18741768 50.9707512 -2.1853027 54.55078125 -2.18554688 C83.70244561 -2.14134937 83.70244561 -2.14134937 90.17407227 -0.42260742 C94.8145389 0.65141955 99.41989034 -2.69294993 103.30200195 -4.91992188 C110.08354964 -8.80462561 116.08691265 -11.45217088 124 -12 C125.22589844 -12.10248047 125.22589844 -12.10248047 126.4765625 -12.20703125 C139.01924139 -12.74457463 151.02671203 -8.26647048 160.3046875 0.1484375 C169.70576586 10.4159747 172.41938669 20.9274625 172.26953125 34.5234375 C172.03770015 37.51372268 171.59707251 39.51575775 170.5 42.25 C169.87440628 46.9419529 170.8568848 47.73476288 173.625 51.4375 C174.37136719 52.36691406 175.11773437 53.29632813 175.88671875 54.25390625 C182.07528586 62.29561175 183.73522497 71.05365463 183 81 C180.75733747 96.24599022 171.95169222 107.69643524 161 118 C160.34 118 159.68 118 159 118 C158.6596875 118.804375 158.6596875 118.804375 158.3125 119.625 C157 122 157 122 154.5 124.6875 C151.35934546 128.41702727 150.1880047 132.14321184 150 137 C151.59539407 148.53034806 159.36795954 157.71044258 168 165 C179.98994566 174.16982402 179.98994566 174.16982402 194 178 C194 178.66 194 179.32 194 180 C208.97617331 182.35339866 222.71923668 183.87462588 236 175 C238.27477228 173.07758424 239.3442529 171.58710485 241 169 C241.37640625 168.41605469 241.7528125 167.83210937 242.140625 167.23046875 C245.72452271 161.0343639 246.76083452 154.3342622 245.5234375 147.28515625 C243.74001974 140.76882213 241.37813764 135.84427 235.9375 131.625 C231.18985845 129.17955532 226.19705531 129.34938825 221 130 C216.68634964 131.54058941 214.38842809 133.12223601 212 137 C211.60253268 139.48520739 211.60253268 139.48520739 211.75 142.0625 C211.76546875 142.91972656 211.7809375 143.77695312 211.796875 144.66015625 C211.92179776 147.15371825 211.92179776 147.15371825 213 150 C217.30122793 151.01861797 217.30122793 151.01861797 221.5 150 C224.82284426 148.6708623 226.60752545 148.91729536 230 150 C232.4375 152.125 232.4375 152.125 234 155 C234.07992337 159.39578554 233.28256909 161.56783551 230.875 165.25 C226.55715276 169.38011475 222.49766822 171.12982954 216.5625 171.375 C211.8836549 171.22303751 208.27936861 169.84455544 204 168 C203.01 167.67 202.02 167.34 201 167 C194.50411399 159.16064665 189.79563143 151.36440585 190 141 C191.20877941 131.25260857 194.95716863 123.48439703 202.328125 116.9296875 C211.45566865 110.06967828 220.68521693 107.9345496 232 109 C243.75585329 110.93605299 253.15057395 118.49623068 260 128 C266.56865137 138.81403928 268.12000428 151.11423841 265.953125 163.4765625 C262.0838658 177.78013545 253.69607858 188.53060047 241 196 C237.73555212 197.60718983 234.46186774 198.88525618 231 200 C230.30648438 200.22558594 229.61296875 200.45117188 228.8984375 200.68359375 C208.25547785 206.28889178 185.62867153 198.36737257 167.6796875 188.23828125 C150.63921686 178.1640125 135.75847996 163.60233243 130.5859375 144.02734375 C128.81261993 134.86520297 129.79361995 126.28458935 134.6875 118.21875 C136.95056156 114.93731074 139.17838172 111.82161828 142 109 C141.67 108.34 141.34 107.68 141 107 C138.47064809 106.62932575 136.02954435 106.38702223 133.484375 106.21875 C132.71756409 106.15973511 131.95075317 106.10072021 131.16070557 106.03991699 C128.69104833 105.85095823 126.22070905 105.67462371 123.75 105.5 C120.53595014 105.2668465 117.3224628 105.02730561 114.109375 104.78125 C113.32136505 104.72153015 112.5333551 104.6618103 111.72146606 104.60028076 C107.13762633 104.23329598 102.64027935 103.6843305 98.1015625 102.921875 C91.91250178 101.89817935 85.88971039 101.69486937 79.625 101.75 C77.98349976 101.75580078 77.98349976 101.75580078 76.30883789 101.76171875 C70.587998 101.82271845 65.08637119 102.10639326 59.4375 103 C44.48641451 105.32982162 29.37391626 104.35720033 14.4375 102.4375 C1.44003061 100.7732073 -9.89400339 101.22311701 -22.77587891 103.83569336 C-30.78190327 105.43670215 -38.88155506 106.20131039 -47 107 C-47 107.66 -47 108.32 -47 109 C-46.34 109 -45.68 109 -45 109 C-38.12204412 118.16508338 -32.65760972 128.23990487 -34 140 C-38.37838789 159.56513905 -51.4474518 174.44024742 -68.125 185.0625 C-88.50866941 197.12244362 -111.73631739 205.68694375 -135.6875 200.9375 C-148.62539607 197.54210688 -159.8656425 190.36141651 -167 179 C-172 169.52493438 -172 169.52493438 -172 164 C-172.99 163.67 -173.98 163.34 -175 163 C-174.34 163 -173.68 163 -173 163 C-173.15855469 162.2884375 -173.31710938 161.576875 -173.48046875 160.84375 C-175.78752178 148.21567023 -172.68894039 135.98796937 -165.75390625 125.28125 C-159.41886221 117.04145998 -150.43131316 110.55459212 -140 109 C-128.09475451 108.11328452 -119.17300262 109.81124183 -109.8125 117.37890625 C-103.03059321 123.4446203 -98.72569798 129.97226373 -97.6171875 139.1796875 C-97.29923833 148.18824744 -99.24888506 154.83402594 -104.1875 162.3125 C-110.24539719 168.10115732 -117.1889382 171.39065716 -125.5859375 171.28125 C-130.84131146 170.66897342 -134.67717416 168.22361391 -138.5 164.6875 C-140.47737793 161.14469788 -140.57180319 159.00262232 -140 155 C-138.07664849 151.59714733 -136.93647204 150.29134686 -133.1875 149.125 C-130 149 -130 149 -126.3125 149.625 C-123.12648638 150.31432713 -123.12648638 150.31432713 -121.125 148.9375 C-119.51927252 146.17208045 -119.12350997 144.21125919 -119 141 C-119.78818911 138.49988422 -120.82053942 136.35892116 -122 134 C-122.66 134 -123.32 134 -124 134 C-124 133.01 -124 132.02 -124 131 C-131.2054592 129.14052666 -137.74045214 129.0658297 -144.28125 132.81640625 C-149.96447095 136.73007886 -151.78929388 142.46218693 -153 149 C-153.22232176 153.01598248 -153.1863364 156.98341537 -153 161 C-152.34 161.33 -151.68 161.66 -151 162 C-150.33333333 164 -149.66666667 166 -149 168 C-148.02418241 169.35113205 -147.02970259 170.68946944 -146 172 C-146 172.66 -146 173.32 -146 174 C-145.41605469 174.28875 -144.83210938 174.5775 -144.23046875 174.875 C-142.86803135 175.56218384 -141.51385104 176.26649707 -140.17578125 177 C-127.14989931 183.99082972 -113.89751757 182.58363661 -100 179 C-82.54231861 173.31949104 -64.67590799 162.06984492 -55.91796875 145.4609375 C-54.03235907 140.40589878 -53.88675854 135.00631704 -55.76953125 129.921875 C-57.95236017 125.9214714 -60.84570821 121.0771459 -65 119 C-65 118.34 -65 117.68 -65 117 C-65.90105469 116.60953491 -65.90105469 116.60953491 -66.8203125 116.21118164 C-70.50655501 114.16285625 -72.53129718 110.78308118 -75 107.4375 C-75.52078125 106.75880859 -76.0415625 106.08011719 -76.578125 105.38085938 C-83.98792269 95.45435009 -88.06236008 84.29565074 -86.625 71.71875 C-84.86348537 63.95207186 -82.03725899 55.67385907 -76.0625 50.1875 C-73.10229401 45.6126362 -74.34895521 42.47990518 -75.36328125 37.296875 C-77.22780291 27.64254197 -75.10358834 20.19858713 -72 11 C-71.83886719 10.26394531 -71.67773438 9.52789062 -71.51171875 8.76953125 C-70.6385443 5.75008066 -68.25424239 4.10054405 -66 2 C-65.2575 1.195625 -64.515 0.39125 -63.75 -0.4375 C-44.80084595 -18.09466627 -20.02971239 -13.35314159 0 0 Z M-44 8 C-44.66 8.66 -45.32 9.32 -46 10 C-45.29875 10.14695312 -44.5975 10.29390625 -43.875 10.4453125 C-35.58378055 12.40546493 -30.01279615 15.27364687 -24.625 21.9375 C-21.21543995 28.36320933 -19.79904451 34.55321887 -21.72265625 41.67578125 C-24.34933018 49.53453443 -27.35886368 54.78319889 -34.8125 58.8125 C-40.25550917 61.31724758 -44.80842522 62.14875984 -50.765625 61.87109375 C-56.76609589 61.5075456 -56.76609589 61.5075456 -62 64.125 C-66.01144171 69.80795912 -66.01144171 69.80795912 -66.9375 76.5625 C-65.88303593 80.42886826 -64.94538792 82.2871427 -62 85 C-56.28306274 87.11052735 -50.93425815 87.38413267 -44.875 87.375 C-43.43942749 87.37584595 -43.43942749 87.37584595 -41.97485352 87.37670898 C-34.27979132 87.26129251 -26.99236841 86.20274904 -19.49365234 84.51123047 C-6.74247151 81.65432361 4.99265386 82.15358266 17.8125 83.9375 C33.16402541 86.05155423 47.62810149 86.80837428 63.0625 84.5 C78.62844118 82.42784759 92.09766141 83.16779991 107.5859375 85.49511719 C133.82450311 89.82609921 133.82450311 89.82609921 159 84 C161.61629563 81.77614872 162.75389286 80.26803771 163.41015625 76.88671875 C163.69697684 72.51086616 163.25831603 70.41026664 160.875 66.625 C157.81986088 63.83552515 155.95156713 62.24401188 152 61 C150.24539798 61.10793293 148.49426803 61.28135232 146.75 61.5 C139.94703901 62.31229385 134.59756681 61.27845898 128.7734375 57.58984375 C122.67937949 52.76252813 118.63832704 46.756764 117.59375 38.97265625 C117.32665105 30.14726194 119.09991023 23.12434993 125.12890625 16.5390625 C130.09076133 12.45770362 136.69828659 10.66333825 143 10 C139.37591006 6.37591006 134.36010436 6.77060604 129.4375 6.625 C119.41861424 6.72969055 112.22904817 9.89131606 104.6875 16.375 C100.39994333 19.9773617 100.39994333 19.9773617 96.6875 20.1875 C95.470625 19.795625 94.25375 19.40375 93 19 C81.08934632 15.53609294 69.33167635 15.25152813 57 15 C55.94377441 14.97510498 55.94377441 14.97510498 54.86621094 14.94970703 C50.57444601 14.85913044 46.29075285 14.89844955 42 15 C41.13375 15.01788574 40.2675 15.03577148 39.375 15.05419922 C26.31157835 15.35815451 13.50192304 15.83269232 1 20 C-3.87846647 19.18692225 -7.18924851 17.34273012 -11.3125 14.625 C-21.47626997 7.94197317 -31.97958683 3.73549657 -44 8 Z M-50 28 C-52.41121859 29.95633975 -52.41121859 29.95633975 -52.125 33.625 C-52.08375 34.73875 -52.0425 35.8525 -52 37 C-49.5595659 38.53656962 -48.29255898 39.02089707 -45.375 38.8125 C-42.66348833 38.1535811 -42.66348833 38.1535811 -41 35 C-41.34605611 32.71602968 -41.96704519 31.06590963 -43 29 C-46.43407381 28.16417032 -46.43407381 28.16417032 -50 28 Z M138.6875 30.5 C137.8521875 31.7375 137.8521875 31.7375 137 33 C137.54708727 35.53744315 137.54708727 35.53744315 139 38 C141.85289698 39.25329784 141.85289698 39.25329784 145 39 C147.56338689 37.52006844 147.56338689 37.52006844 149 35 C148.83849795 31.60845705 148.41703243 30.41703243 146 28 C142.19579917 27.29922616 141.36758615 27.60260957 138.6875 30.5 Z " fill="#090A0A" transform="translate(199,329)"/>
<path d="M0 0 C4.85837905 3.91173837 7.13176865 8.71150814 9.8125 14.1875 C13.88101651 22.21901614 18.10706959 29.38444659 24.72265625 35.625 C26 37 26 37 26 39 C26.57492187 39.24878906 27.14984375 39.49757813 27.7421875 39.75390625 C30.32657735 41.18023906 32.02844985 42.85973614 34.125 44.9375 C52.17281757 61.39753303 75.72493637 69.20171105 98.50170898 76.61303711 C114.79536784 81.97265051 128.0750242 88.71245022 137 104 C140.02771275 110.13366097 142.60201556 116.1016031 143 123 C143.0825 124.216875 143.165 125.43375 143.25 126.6875 C143.07295368 138.08485682 138.70131762 148.78825712 131.046875 157.11328125 C121.61325044 165.80877869 110.58198607 168.89226714 98.01171875 168.41015625 C88.60181461 167.69630145 80.13311084 163.11497777 74 156 C68.68277822 148.33014557 66.36087363 141.0398038 67.4609375 131.71484375 C68.75063986 125.21960361 71.81319198 120.14944642 77 116 C82.31757404 112.7451886 86.73248553 111.36658282 92.9296875 112.45703125 C98.4426527 113.90288439 102.00190499 116.11421555 105 121 C106.17805879 125.12320575 106.46054428 127.05888778 104.5625 130.9375 C101.62424 133.30244098 99.7740183 133.53940563 96.0390625 133.30859375 C93.21551841 132.88127578 90.64602359 132.05840943 88 131 C86.66101103 136.11250333 87.42161562 138.46204349 90 143 C90 143.66 90 144.32 90 145 C96.55828683 147.65876493 102.12471267 149.30714226 109.15625 147.421875 C115.07408728 144.91817461 118.0411263 140.55940629 121 135 C123.2113193 128.3660421 122.9405838 121.1292579 120.0625 114.75 C114.05373172 104.39234419 105.4385588 100.49478855 94.55224609 96.85986328 C89.44881775 95.14049513 84.38270481 93.31451659 79.3125 91.5 C78.23202393 91.11529541 77.15154785 90.73059082 76.03833008 90.33422852 C69.29015767 87.90596177 62.78275978 85.28523244 56.35546875 82.09375 C54.22615906 81.10501581 52.29240486 80.47023689 50 80 C50 79.34 50 78.68 50 78 C49.27425781 77.73445312 48.54851562 77.46890625 47.80078125 77.1953125 C44.99829072 75.99927052 42.69520648 74.59670893 40.1875 72.875 C39.39730469 72.33617187 38.60710937 71.79734375 37.79296875 71.2421875 C37.20128906 70.83226562 36.60960937 70.42234375 36 70 C36.76183594 71.47146484 36.76183594 71.47146484 37.5390625 72.97265625 C46.23001448 89.93061133 54.23519073 107.64700014 55 127 C55.05994141 128.15628906 55.05994141 128.15628906 55.12109375 129.3359375 C55.55808031 145.2216842 51.77334277 160.32368413 42 173 C41.24976563 174.01320313 41.24976563 174.01320313 40.484375 175.046875 C31.26517304 186.59325416 17.22070229 193.01448113 2.75 194.875 C-9.85532978 195.53953139 -21.64561549 193.15984675 -31.4375 184.75 C-37.09419345 179.21307367 -42.57706617 173.24720976 -43 165 C-43.99 165 -44.98 165 -46 165 C-45.835 164.505 -45.67 164.01 -45.5 163.5 C-44.86500532 160.82167968 -44.86500532 160.82167968 -45.125 157.3125 C-45.20405204 148.79068973 -41.20308406 140.38151687 -35.34375 134.2734375 C-34.67859375 133.64308594 -34.67859375 133.64308594 -34 133 C-34.77923828 132.01773438 -34.77923828 132.01773438 -35.57421875 131.015625 C-56.92594806 103.07288128 -51.36906537 65.83894301 -48 33 C-47.92934326 32.27731934 -47.85868652 31.55463867 -47.78588867 30.81005859 C-47.5995762 29.19616497 -47.31194441 27.59438253 -47 26 C-46.34 25.67 -45.68 25.34 -45 25 C-44.896875 24.05125 -44.79375 23.1025 -44.6875 22.125 C-44 19 -44 19 -41.875 17.0625 C-38.06658941 15.65504391 -35.8872978 15.86914973 -32 17 C-29.02302843 20.2236643 -27.13038109 23.47458886 -25.37109375 27.47265625 C-24.89897461 28.52759277 -24.42685547 29.5825293 -23.94042969 30.66943359 C-23.44446289 31.78914551 -22.94849609 32.90885742 -22.4375 34.0625 C-13.97735726 52.75769527 -4.30011285 69.98742251 7.78344727 86.57885742 C33 121.22785699 33 121.22785699 33 137 C33.66 137.33 34.32 137.66 35 138 C34.505 134.535 34.505 134.535 34 131 C34.33 131 34.66 131 35 131 C34.79485713 122.36535031 32.61672548 114.69637953 30.05859375 106.52734375 C29 103 29 103 29 101 C28.34 100.67 27.68 100.34 27 100 C26.26928667 98.38158416 25.6122162 96.72935426 25 95.0625 C23.58729571 91.16740943 23.58729571 91.16740943 21 88 C20.29630425 86.68583315 19.63805478 85.34725956 19 84 C18.49726563 83.00613281 17.99453125 82.01226563 17.4765625 80.98828125 C15.72807465 77.52502295 13.99963797 74.05203565 12.27734375 70.57568359 C11.39215169 68.7907493 10.50392179 67.00731955 9.61328125 65.22509766 C3.69140039 53.3396605 -1.83911962 41.39229626 -6.625 29 C-7.03862793 27.93281738 -7.45225586 26.86563477 -7.87841797 25.76611328 C-13.75372632 10.18183934 -13.75372632 10.18183934 -11.8125 4.5625 C-8.47121698 -0.16138289 -5.56684743 -0.6718609 0 0 Z M-30 64 C-32.18948476 81.74542082 -33.26113158 101.00210467 -22 116 C-18.31360858 120.62516191 -14.39535983 124.74952473 -9.875 128.5625 C-5.41519205 132.32738719 -1.62243889 136.75512223 1 142 C1.56980057 149.06552707 1.56980057 149.06552707 -0.5625 152.5625 C-3 154 -3 154 -6.375 154.0625 C-9.70190279 153.08737332 -10.70857727 152.61726277 -13.125 150.4375 C-15.72702281 147.84227931 -15.72702281 147.84227931 -18.625 147.4375 C-22.04066751 148.24647388 -23.08198521 149.01642144 -25 152 C-25.90842178 156.39458744 -25.85616458 160.25541807 -23.859375 164.32421875 C-20.39364851 169.25831884 -16.91996248 172.04077989 -10.97265625 173.49609375 C-4.11055361 174.66590738 2.15600978 173.38716841 8.08203125 169.70703125 C12.10237542 166.55000309 14.97682478 163.10665832 16 158 C17.94509786 137.56277465 8.3407814 120.59980472 -3.58789062 104.86523438 C-5.1508991 102.80067961 -6.69326882 100.7215743 -8.234375 98.640625 C-10.32729336 95.8235693 -12.4219921 93.00797428 -14.53125 90.203125 C-14.95986328 89.63239258 -15.38847656 89.06166016 -15.83007812 88.47363281 C-17.07136419 86.85254477 -17.07136419 86.85254477 -19 85 C-19.33 85.33 -19.66 85.66 -20 86 C-20.09410156 85.13632812 -20.18820312 84.27265625 -20.28515625 83.3828125 C-21.0801249 79.62082969 -22.42896422 77.14043654 -24.4375 73.875 C-26.41862722 70.62413154 -28.32502705 67.41762158 -30 64 Z " fill="#090A0A" transform="translate(303,463)"/>
<path d="M0 0 C2.91621153 0.87426465 4.20813679 2.0628862 5.90234375 4.5703125 C7.84358714 10.60339245 5.70557101 15.52466739 3.71484375 21.2578125 C3.18213867 22.82112305 3.18213867 22.82112305 2.63867188 24.41601562 C-4.23708526 44.01948563 -13.17644535 63.11626596 -23.15234375 81.33984375 C-32.15428878 97.79546696 -43.52051618 119.78460738 -39.609375 138.96484375 C-39.44050781 139.49464844 -39.27164063 140.02445313 -39.09765625 140.5703125 C-38.90171875 139.61253906 -38.70578125 138.65476562 -38.50390625 137.66796875 C-34.49525182 119.32604414 -25.7050093 104.84569546 -15.09765625 89.5703125 C-4.4412801 74.07947999 5.45377364 58.20532025 13.52734375 41.1953125 C13.84606445 40.5242749 14.16478516 39.8532373 14.49316406 39.16186523 C15.9283862 36.03863513 17.11634953 32.97363817 17.98828125 29.65625 C18.44074219 28.12871094 18.44074219 28.12871094 18.90234375 26.5703125 C19.89234375 26.0753125 19.89234375 26.0753125 20.90234375 25.5703125 C21.59892738 23.91592637 22.26331258 22.24776932 22.90234375 20.5703125 C24.90234375 17.5703125 24.90234375 17.5703125 28.71484375 16.5703125 C32.22034063 16.2585714 32.74038936 16.45412783 35.77734375 18.6328125 C39.72392357 24.08837872 40.34056031 29.83361935 40.97265625 36.3515625 C41.10199554 37.61542282 41.10199554 37.61542282 41.23394775 38.90481567 C41.50798797 41.62580431 41.7692972 44.347763 42.02734375 47.0703125 C42.11638977 47.99559753 42.20543579 48.92088257 42.29718018 49.87420654 C43.58940652 63.43949025 44.77332142 76.93842716 43.90234375 90.5703125 C43.85835449 91.26608398 43.81436523 91.96185547 43.76904297 92.67871094 C42.70884145 106.9215468 38.07357244 118.94123388 29.90234375 130.5703125 C29.24234375 131.5603125 28.58234375 132.5503125 27.90234375 133.5703125 C28.36125 133.97121094 28.82015625 134.37210938 29.29296875 134.78515625 C35.67594808 140.69879886 39.38229735 147.32846028 39.99609375 156.12109375 C39.64971013 165.17036574 36.55715953 172.60950355 30.90234375 179.5703125 C30.18304688 180.49263672 30.18304688 180.49263672 29.44921875 181.43359375 C24.01520557 187.62233098 14.15198721 193.25370274 5.90234375 194.5703125 C3.98673121 194.63719841 2.06898783 194.65562969 0.15234375 194.6328125 C-0.8325 194.62378906 -1.81734375 194.61476563 -2.83203125 194.60546875 C-3.95351563 194.58806641 -3.95351563 194.58806641 -5.09765625 194.5703125 C-5.42765625 195.2303125 -5.75765625 195.8903125 -6.09765625 196.5703125 C-6.09765625 195.9103125 -6.09765625 195.2503125 -6.09765625 194.5703125 C-7.12890625 194.6734375 -8.16015625 194.7765625 -9.22265625 194.8828125 C-21.01769136 194.84106016 -32.86351327 188.05310926 -41.49609375 180.4609375 C-52.68055507 169.08561507 -58.90764687 153.52902778 -59.16015625 137.63671875 C-59.13953125 136.62480469 -59.11890625 135.61289062 -59.09765625 134.5703125 C-59.75765625 134.2403125 -60.41765625 133.9103125 -61.09765625 133.5703125 C-60.43765625 133.5703125 -59.77765625 133.5703125 -59.09765625 133.5703125 C-59.13246094 132.80589844 -59.16726562 132.04148437 -59.203125 131.25390625 C-59.72556892 110.58005412 -52.63244779 87.87249981 -41.09765625 70.5703125 C-42.06703125 71.1271875 -43.03640625 71.6840625 -44.03515625 72.2578125 C-61.55540626 82.26244285 -78.94786922 90.40720681 -98.20727539 96.52832031 C-110.1577929 100.34976954 -119.49630064 104.29716819 -125.41015625 115.7578125 C-128.30623605 122.8029699 -128.00559082 129.72350705 -125.59765625 136.8828125 C-123.32999353 141.98708558 -119.92527767 144.88389483 -115.09765625 147.5703125 C-109.43575889 149.45761162 -102.59365542 149.71640185 -97.09765625 147.1328125 C-93.18105933 143.78738596 -92.02082057 140.56419185 -91.09765625 135.5703125 C-91.09765625 134.2503125 -91.09765625 132.9303125 -91.09765625 131.5703125 C-92.08765625 131.9003125 -93.07765625 132.2303125 -94.09765625 132.5703125 C-95.08765625 132.5703125 -96.07765625 132.5703125 -97.09765625 132.5703125 C-97.69578125 132.9209375 -98.29390625 133.2715625 -98.91015625 133.6328125 C-102.11420643 135.00597686 -103.83758324 134.74948785 -107.09765625 133.5703125 C-109.6946802 129.51246257 -110.23824771 127.73521319 -109.66015625 122.9453125 C-107.32774383 117.90730167 -104.17921937 115.50037262 -99.16015625 113.2578125 C-92.13727902 111.68124822 -87.62941135 112.71433895 -81.3984375 116.08984375 C-75.6822671 119.76799074 -72.66050062 125.0304099 -71.09765625 131.5703125 C-69.73456158 140.61328204 -73.02154013 149.06682174 -78.22265625 156.3828125 C-83.69903287 162.92632032 -91.50628261 167.72881935 -100.09765625 168.5703125 C-102.83383044 168.69706377 -105.54815032 168.788881 -108.28515625 168.8203125 C-108.97496582 168.82981934 -109.66477539 168.83932617 -110.37548828 168.84912109 C-114.3887468 168.82286522 -117.48579144 168.33767159 -121.09765625 166.5703125 C-121.42765625 167.2303125 -121.75765625 167.8903125 -122.09765625 168.5703125 C-122.75765625 167.9103125 -123.41765625 167.2503125 -124.09765625 166.5703125 C-126.09508144 165.02283361 -128.1216419 163.55399694 -130.2109375 162.1328125 C-140.04464271 155.14616581 -145.48478778 145.37633888 -147.6328125 133.6484375 C-149.31597581 120.24849658 -145.17793586 107.83325659 -137.26953125 97.0859375 C-127.5381931 85.19207977 -113.46860133 79.78111106 -99.09765625 75.5703125 C-98.10765625 75.5703125 -97.11765625 75.5703125 -96.09765625 75.5703125 C-95.76765625 74.9103125 -95.43765625 74.2503125 -95.09765625 73.5703125 C-93.33227539 73.06274414 -93.33227539 73.06274414 -91.0703125 72.66796875 C-86.2364033 71.68361947 -82.00849623 70.05669723 -77.53515625 68.0078125 C-76.76357178 67.65775146 -75.9919873 67.30769043 -75.19702148 66.94702148 C-62.69646514 61.17271768 -51.42290054 54.77498764 -41.09765625 45.5703125 C-40.23527344 44.83941406 -39.37289062 44.10851562 -38.484375 43.35546875 C-31.0162288 36.90725147 -24.00486263 29.76373928 -20.09765625 20.5703125 C-19.09765625 18.5703125 -19.09765625 18.5703125 -17.71875 16.82421875 C-15.16660608 13.27581623 -13.52865884 9.30279543 -11.6953125 5.34765625 C-8.60428831 -0.02573788 -5.85444287 -1.02480006 0 0 Z M20.90234375 70.5703125 C20.3196875 71.6840625 19.73703125 72.7978125 19.13671875 73.9453125 C13.6470349 84.23846971 7.51765339 93.49986199 0.35742188 102.69287109 C-11.576147 118.09037858 -23.10731567 134.05213932 -22.03515625 154.5078125 C-21.15078836 160.8395103 -19.04221771 166.06983351 -14.28515625 170.4453125 C-8.81766431 174.09030713 -3.61215959 175.14176016 2.90234375 174.5703125 C9.04125424 172.85658223 14.35553247 170.66059802 18.21484375 165.4453125 C20.39014063 161.26341523 20.78479895 157.18760337 19.90234375 152.5703125 C17.98378283 149.65694221 16.89905171 148.80637491 13.52734375 148.0078125 C10.36638748 148.68516027 9.04231502 150.23898092 6.7265625 152.390625 C3.20883921 154.66546961 -1.01027089 154.4814563 -5.09765625 154.5703125 C-7.26649905 150.61536387 -7.4595282 147.30202465 -6.80078125 142.94140625 C-4.76872643 136.08886584 1.11202966 131.33280002 6.09765625 126.50830078 C17.73124784 115.21239975 23.76066099 104.10348143 24.078125 87.62890625 C24.11749253 81.94073502 24.04444837 76.25668351 23.90234375 70.5703125 C22.91234375 70.5703125 21.92234375 70.5703125 20.90234375 70.5703125 Z " fill="#090A0A" transform="translate(197.09765625,462.4296875)"/>
<path d="M0 0 C1.50875941 6.03503763 0.64186094 11.89738369 0 18 C-0.66386719 17.89300781 -1.32773437 17.78601563 -2.01171875 17.67578125 C-7.62035481 16.89653309 -7.62035481 16.89653309 -13.0625 18.125 C-16.40024374 21.35507459 -16.03728542 24.7858229 -16.125 29.1875 C-16.27210728 32.80383851 -16.27210728 32.80383851 -15 35 C-10.05 35 -5.1 35 0 35 C0 34.67 0 34.34 0 34 C1.98 33.34 3.96 32.68 6 32 C5.95875 30.741875 5.9175 29.48375 5.875 28.1875 C5.90144653 19.79072681 6.92734355 11.85494115 12 5 C17.90940641 -0.51250598 24.64698867 -2.42094772 32.64453125 -2.26953125 C36.67799097 -1.80799108 40.21558278 -0.44168275 44 1 C44 6.28 44 11.56 44 17 C38.85682338 18.28579416 34.30143797 18.06311236 29 18 C28.67 23.94 28.34 29.88 28 36 C33.22100062 35.63163865 33.22100062 35.63163865 38.44116211 35.25170898 C40.29190666 35.12844889 42.14620522 35.062397 44 35 C46.12054673 37.12054673 45.46358777 41.5613479 45.625 44.5 C45.6765625 45.29792969 45.728125 46.09585938 45.78125 46.91796875 C45.89815938 48.94325187 45.95390612 50.97186912 46 53 C44.08817842 54.91182158 40.68058246 54.35366808 38.125 54.5 C32.97268808 54.77832315 32.97268808 54.77832315 28 56 C28 75.47 28 94.94 28 115 C25.17588235 115.94137255 23.47081968 116.11725382 20.55078125 116.09765625 C19.70322266 116.09443359 18.85566406 116.09121094 17.98242188 116.08789062 C17.10134766 116.07951172 16.22027344 116.07113281 15.3125 116.0625 C14.41982422 116.05798828 13.52714844 116.05347656 12.60742188 116.04882812 C10.40488013 116.03704983 8.20247401 116.02060164 6 116 C6.00222061 115.40309357 6.00444122 114.80618713 6.00672913 114.19119263 C6.02880297 107.99481808 6.04391542 101.79845465 6.05493164 95.60205078 C6.05996943 93.28759304 6.06679981 90.9731385 6.07543945 88.65869141 C6.08752924 85.3375571 6.09323375 82.01646475 6.09765625 78.6953125 C6.10281754 77.65569366 6.10797882 76.61607483 6.11329651 75.54495239 C6.11337204 74.58410736 6.11344757 73.62326233 6.11352539 72.63330078 C6.115746 71.78502716 6.11796661 70.93675354 6.12025452 70.06277466 C6.13232184 67.93597607 6.13232184 67.93597607 5 66 C5.0870204 64.28766312 5.24097162 62.57824594 5.4375 60.875 C5.53933594 59.96492188 5.64117188 59.05484375 5.74609375 58.1171875 C5.82988281 57.41851562 5.91367187 56.71984375 6 56 C3.03 56 0.06 56 -3 56 C-3 55.67 -3 55.34 -3 55 C-5.31 55 -7.62 55 -10 55 C-10 55.33 -10 55.66 -10 56 C-12.31 56 -14.62 56 -17 56 C-16.86185777 59.9794733 -16.71320326 63.95848415 -16.5625 67.9375 C-16.52318359 69.07380859 -16.48386719 70.21011719 -16.44335938 71.38085938 C-16.40146484 72.46044922 -16.35957031 73.54003906 -16.31640625 74.65234375 C-16.26141968 76.15269165 -16.26141968 76.15269165 -16.20532227 77.68334961 C-16.25328159 79.96069188 -16.25328159 79.96069188 -15 81 C-14.95834237 82.99956611 -14.95834237 85.00043389 -15 87 C-15 87.33 -15 87.66 -15 88 C-15 89.66666667 -15 91.33333333 -15 93 C-15.33 93 -15.66 93 -16 93 C-16.33 99.93 -16.66 106.86 -17 114 C-16.01 114.495 -16.01 114.495 -15 115 C-20.36729935 115.68156182 -25.57805506 116.1084389 -31 116 C-31.99 116 -32.98 116 -34 116 C-35.66666667 116 -37.33333333 116 -39 116 C-39 114.68 -39 113.36 -39 112 C-38.34 112 -37.68 112 -37 112 C-37 111.01 -37 110.02 -37 109 C-37.66 109 -38.32 109 -39 109 C-38.91621094 108.25234375 -38.83242188 107.5046875 -38.74609375 106.734375 C-38.64425781 105.74953125 -38.54242187 104.7646875 -38.4375 103.75 C-38.33308594 102.77546875 -38.22867188 101.8009375 -38.12109375 100.796875 C-38.01025532 98.2368648 -38.22261908 96.41851841 -39 94 C-38.67 94 -38.34 94 -38 94 C-38 90.7 -38 87.4 -38 84 C-38.33 84 -38.66 84 -39 84 C-39 74.33333333 -39 64.66666667 -39 55 C-40.258125 54.979375 -41.51625 54.95875 -42.8125 54.9375 C-43.52019531 54.92589844 -44.22789062 54.91429687 -44.95703125 54.90234375 C-47.20305461 54.91736783 -47.20305461 54.91736783 -50 56 C-51 55 -51 55 -51.09765625 51.62109375 C-51.09098369 50.22652923 -51.07902532 48.83198257 -51.0625 47.4375 C-51.05798828 46.72658203 -51.05347656 46.01566406 -51.04882812 45.28320312 C-51.03700864 43.52209987 -51.01907263 41.76103964 -51 40 C-51.66 40 -52.32 40 -53 40 C-52 37 -52 37 -51 36 C-48.48291327 35.79700913 -45.9682381 35.68087304 -43.4453125 35.57421875 C-40.87385006 35.19688561 -40.87385006 35.19688561 -39.16015625 33.16015625 C-37.54877432 30.15983905 -38.19440514 28.22237942 -39 25 C-38.67 25 -38.34 25 -38 25 C-37.90203125 24.14277344 -37.8040625 23.28554688 -37.703125 22.40234375 C-36.60256134 13.98682676 -35.68120928 7.62879399 -28.6875 2.1875 C-20.01351454 -3.38732364 -9.50657022 -3.38011386 0 0 Z M5 34 C4.01 34.66 3.02 35.32 2 36 C3.32 36 4.64 36 6 36 C5.67 35.34 5.34 34.68 5 34 Z M2 54 C6 55 6 55 6 55 Z M-17 81 C-16 83 -16 83 -16 83 Z M-38 106 C-37 108 -37 108 -37 108 Z " fill="#0B0B0B" transform="translate(695,440)"/>
<path d="M0 0 C0.64347382 0.07187027 1.28694763 0.14374054 1.94992065 0.2177887 C6.91235859 0.74751691 11.7605817 1.11198468 16.7578125 1.02734375 C17.95301514 1.0133252 19.14821777 0.99930664 20.37963867 0.98486328 C21.61560791 0.9692334 22.85157715 0.95360352 24.125 0.9375 C55.87045842 0.80593326 55.87045842 0.80593326 65 9 C72.14713082 17.46795581 72.84462865 25.09327353 72 36 C70.33429709 42.65220208 65.51979685 47.17676409 60 51 C59.34 51 58.68 51 58 51 C58 51.66 58 52.32 58 53 C59.5159375 53.2475 59.5159375 53.2475 61.0625 53.5 C66.84516018 55.1655938 70.08322455 59.85730103 73.10546875 64.8125 C76.41274762 72.0170887 76.32934313 80.94597486 73.8984375 88.359375 C70.33944409 96.01025922 66.07520697 101.27140699 58.375 104.8125 C53.80397153 106.42082483 49.67832886 107.11962455 44.8425293 107.20532227 C43.84186935 107.22526749 42.84120941 107.24521271 41.81022644 107.26576233 C40.7423439 107.28247482 39.67446136 107.29918732 38.57421875 107.31640625 C37.47149124 107.33718735 36.36876373 107.35796844 35.23262024 107.37937927 C31.71764222 107.44464932 28.20259088 107.50365495 24.6875 107.5625 C22.30142477 107.60570665 19.91535691 107.64932163 17.52929688 107.69335938 C11.68627494 107.8003076 5.84318042 107.90211555 0 108 C-1.069671 104.51266949 -1.12683878 101.29643176 -1.12939453 97.65966797 C-1.13254669 96.36825897 -1.13569885 95.07684998 -1.13894653 93.74630737 C-1.13715091 92.32826708 -1.13509855 90.91022709 -1.1328125 89.4921875 C-1.13348829 88.0099384 -1.13446059 86.5276894 -1.13571167 85.04544067 C-1.13718945 81.91651367 -1.13504065 78.7876151 -1.13037109 75.65869141 C-1.12482057 71.75984674 -1.12794622 67.86107259 -1.13382339 63.96223068 C-1.16084341 42.62464101 -0.75522257 21.32406721 0 0 Z M21 19 C21 27.58 21 36.16 21 45 C35.2451196 45.90602599 35.2451196 45.90602599 48.25 40.5625 C50.67976861 35.61618533 51.00593188 31.40894519 50 26 C47.59621135 22.31919862 45.74085786 21.29354745 41.6875 19.6875 C34.98475232 18.30027756 27.77709332 18.88704844 21 19 Z M21 62 C21 70.91 21 79.82 21 89 C25.9809375 89.0928125 25.9809375 89.0928125 31.0625 89.1875 C32.09511963 89.21481201 33.12773926 89.24212402 34.19165039 89.27026367 C41.08347964 89.33208871 46.12533236 88.6477202 51.375 83.8125 C53.43171643 80.25279849 54.18553801 77.06637481 54 73 C52.69489422 68.39374431 51.151172 65.39517974 47.04418945 62.79394531 C42.49094163 61.02550366 37.42860556 61.60402516 32.625 61.75 C26.870625 61.87375 26.870625 61.87375 21 62 Z " fill="#090909" transform="translate(491,448)"/>
<path d="M0 0 C8.25 0 16.5 0 25 0 C25.928125 2.68125 26.85625 5.3625 27.8125 8.125 C34.42885641 27.08782106 41.42226814 45.91649984 48.5625 64.6875 C49.00980469 65.86618652 49.45710937 67.04487305 49.91796875 68.25927734 C52.68357677 75.54722671 52.68357677 75.54722671 55.47021484 82.82714844 C56.44430118 85.36083016 57.41272788 87.89652961 58.37475586 90.43481445 C59.271858 92.80123391 60.17724342 95.16453464 61.09204102 97.52416992 C61.48963623 98.57967041 61.88723145 99.6351709 62.296875 100.72265625 C62.82812988 102.11109741 62.82812988 102.11109741 63.37011719 103.52758789 C64.03905479 106.15329761 63.91350547 107.48418241 63 110 C62.34 109.67 61.68 109.34 61 109 C59.50118677 108.93965115 57.99966307 108.93958417 56.5 108.97265625 C55.613125 108.98490234 54.72625 108.99714844 53.8125 109.00976562 C51.93742272 109.04492332 50.06241459 109.08398633 48.1875 109.12695312 C47.300625 109.13791016 46.41375 109.14886719 45.5 109.16015625 C44.6853125 109.17699463 43.870625 109.19383301 43.03125 109.21118164 C41 109 41 109 39 107 C38.36492214 105.42639046 37.79837448 103.82463265 37.2734375 102.2109375 C36.809375 100.79941406 36.809375 100.79941406 36.3359375 99.359375 C36.01882813 98.37453125 35.70171875 97.3896875 35.375 96.375 C35.05015625 95.38242187 34.7253125 94.38984375 34.390625 93.3671875 C33.58834762 90.91316257 32.79172414 88.45744591 32 86 C31.34 86 30.68 86 30 86 C29.67 85.01 29.34 84.02 29 83 C17.12 83 5.24 83 -7 83 C-9.97 91.58 -12.94 100.16 -16 109 C-29.5 109 -29.5 109 -35 108 C-35.33 108.99 -35.66 109.98 -36 111 C-36 110.34 -36 109.68 -36 109 C-37.32 108.67 -38.64 108.34 -40 108 C-39.32682292 106.1640625 -38.65364583 104.328125 -37.98046875 102.4921875 C-37.5414624 101.29480957 -37.10245605 100.09743164 -36.65014648 98.86376953 C-35.65647038 96.15369781 -34.66244877 93.44375312 -33.66821289 90.73388672 C-31.25773176 84.16310849 -28.84953392 77.59155279 -26.453125 71.015625 C-17.79491274 47.28420616 -8.88913305 23.64568066 0 0 Z M12 25 C8.5099844 34.03824553 5.21377342 43.12878001 2.125 52.3125 C1.8148999 53.22539795 1.5047998 54.1382959 1.18530273 55.07885742 C0.89985596 55.93584229 0.61440918 56.79282715 0.3203125 57.67578125 C0.06523926 58.43802002 -0.18983398 59.20025879 -0.45263672 59.9855957 C-1.13110836 62.13459682 -1.13110836 62.13459682 -1 65 C7.91 65 16.82 65 26 65 C23.22002287 56.69923854 23.22002287 56.69923854 20.43652344 48.3996582 C17.84176991 40.63362911 15.37072404 32.83728669 13 25 C12.67 25 12.34 25 12 25 Z " fill="#0A0A0A" transform="translate(883,447)"/>
<path d="M0 0 C0.83273437 0.26296875 1.66546875 0.5259375 2.5234375 0.796875 C10.02585856 4.44158429 15.32348138 15.34178367 18.125 22.8125 C21.36310929 34.60846956 20.82397236 47.82866242 15.6015625 58.98828125 C14.17636938 61.42991921 12.66618989 63.71785161 11 66 C10.360625 66.928125 9.72125 67.85625 9.0625 68.8125 C1.62164312 76.7043179 -8.24149811 80.08675953 -19 80.5 C-30.27369415 80.05263118 -39.8733758 76.32245237 -47.7109375 68.234375 C-50.57436893 65.02174462 -52.81645349 61.71202907 -55 58 C-55.66 57.67 -56.32 57.34 -57 57 C-56.79375 56.46375 -56.5875 55.9275 -56.375 55.375 C-55.78544252 52.9159374 -55.78544252 52.9159374 -56.98828125 50.39453125 C-58.24490877 46.17827906 -58.11528098 42.66228539 -57.8125 38.3125 C-57.75989014 37.51521484 -57.70728027 36.71792969 -57.65307617 35.89648438 C-56.71379702 23.62489557 -53.40655832 12.81910588 -44.25 4.125 C-31.6409468 -6.15622799 -14.3144017 -6.47218823 0 0 Z M-30 18 C-31.61435165 20.27843597 -31.61435165 20.27843597 -32.75 22.875 C-33.15734375 23.71804688 -33.5646875 24.56109375 -33.984375 25.4296875 C-37.22361625 33.62745959 -37.03931072 42.86690285 -33.91796875 51.05859375 C-31.85387513 55.42393218 -29.47410469 58.2180721 -25 60 C-19.87684253 60.69648154 -14.4835728 61.14691308 -9.69921875 58.9375 C-5.40230402 55.55149439 -2.89609761 51.40037588 -2 46 C-1.13974533 36.24722516 -0.71451781 27.12922363 -7 19 C-10.76419256 15.14399786 -13.86109596 14.73460528 -19.0625 14.5625 C-23.60645176 14.56834807 -26.37202824 15.19740721 -30 18 Z " fill="#0A0B0B" transform="translate(796,478)"/>
<path d="M0 0 C0.00879936 0.99478867 0.00879936 0.99478867 0.01777649 2.00967407 C0.08177708 8.92062848 0.16621457 15.8311201 0.26245117 22.74169922 C0.29567781 25.3197621 0.32371673 27.89789733 0.34643555 30.47607422 C0.38002207 34.18488354 0.43234244 37.8930312 0.48828125 41.6015625 C0.49467117 42.75177887 0.5010611 43.90199524 0.50764465 45.08706665 C0.63541091 52.96558625 0.63541091 52.96558625 4 60 C7.97382761 61.9869138 12.67819475 61.5246122 17 61 C20.25726954 59.00575334 21.54425832 57.55651746 22.62107849 53.87879944 C23.88392858 47.65814297 24.25411895 41.77029372 24.16015625 35.43359375 C24.15495468 34.47348892 24.14975311 33.51338409 24.14439392 32.52418518 C24.12675414 29.49512732 24.09556213 26.4664255 24.0625 23.4375 C24.03488861 20.37647692 24.01023065 17.31549925 23.99131775 14.25440979 C23.9790437 12.35799376 23.9614237 10.46160349 23.93800354 8.56529236 C23.92116011 6.37682882 23.95519266 4.18806962 24 2 C25 1 25 1 26.94946289 0.88647461 C27.7821167 0.89171143 28.61477051 0.89694824 29.47265625 0.90234375 C30.37177734 0.90556641 31.27089844 0.90878906 32.19726562 0.91210938 C33.14279297 0.92048828 34.08832031 0.92886719 35.0625 0.9375 C36.01189453 0.94201172 36.96128906 0.94652344 37.93945312 0.95117188 C40.29303065 0.9629989 42.64648477 0.97947975 45 1 C46.19910499 4.74962058 46.13389975 8.44608036 46.11352539 12.33886719 C46.11367142 13.07096909 46.11381744 13.80307098 46.1139679 14.55735779 C46.11327276 16.97056062 46.10549908 19.3836857 46.09765625 21.796875 C46.09579065 23.47267617 46.09436742 25.14847788 46.09336853 26.82427979 C46.08955452 31.23013826 46.07973376 35.63596366 46.06866455 40.04180908 C46.05842643 44.53958692 46.05386576 49.03737011 46.04882812 53.53515625 C46.03811049 62.35678769 46.02052272 71.17838592 46 80 C36.1 80.495 36.1 80.495 26 81 C25.34 79.35 24.68 77.7 24 76 C23.34 76 22.68 76 22 76 C22 76.66 22 77.32 22 78 C20.730447 78.64834654 19.45930294 79.29357815 18.1875 79.9375 C17.12595703 80.47697266 17.12595703 80.47697266 16.04296875 81.02734375 C10.08585932 83.86352013 3.56191135 83.96960351 -2.76953125 82.24609375 C-10.13341465 79.43081599 -14.68482803 76.38593598 -18.10546875 69.1953125 C-20.1092717 64.27768256 -21.24958059 60.15059942 -21.22705078 54.81103516 C-21.22689972 53.61024323 -21.22674866 52.40945129 -21.22659302 51.17227173 C-21.21627045 49.89081268 -21.20594788 48.60935364 -21.1953125 47.2890625 C-21.1915779 45.95242526 -21.18873304 44.61578526 -21.18673706 43.27914429 C-21.17913577 39.77744868 -21.15951788 36.2759215 -21.1373291 32.77429199 C-21.11679474 29.19460325 -21.10771918 25.61488704 -21.09765625 22.03515625 C-21.07626829 15.02336873 -21.04217516 8.01169247 -21 1 C-18.06255476 0.83231709 -15.12505096 0.66581142 -12.1875 0.5 C-11.35412109 0.45230469 -10.52074219 0.40460938 -9.66210938 0.35546875 C-8.85966797 0.31035156 -8.05722656 0.26523437 -7.23046875 0.21875 C-6.49207764 0.17685547 -5.75368652 0.13496094 -4.99291992 0.09179688 C-3.33009506 0.01520467 -1.6645879 0 0 0 Z " fill="#0A0B0B" transform="translate(595,475)"/>
<path d="M0 0 C6.93 0 13.86 0 21 0 C21 35.97 21 71.94 21 109 C14.07 109 7.14 109 0 109 C-0.94187226 106.17438321 -1.12647052 104.45236254 -1.12939453 101.52758789 C-1.13250641 100.61271103 -1.13561829 99.69783417 -1.13882446 98.75523376 C-1.13684052 97.75448318 -1.13485657 96.7537326 -1.1328125 95.72265625 C-1.13413177 94.66804703 -1.13545105 93.61343781 -1.1368103 92.52687073 C-1.13874379 89.03871838 -1.13234184 85.55064438 -1.125 82.0625 C-1.12411377 80.8752533 -1.12322754 79.68800659 -1.12231445 78.46478271 C-1.09950955 52.30273943 -0.60372397 26.15418503 0 0 Z " fill="#070808" transform="translate(955,447)"/>
<path d="M0 0 C1.2964351 0.76278623 2.58699148 1.53556959 3.875 2.3125 C4.59429687 2.74175781 5.31359375 3.17101562 6.0546875 3.61328125 C8 5 8 5 10 8 C10.4333081 11.2807613 10.67496386 13.79259454 9.01953125 16.75390625 C7.30839439 18.93889639 5.54684787 20.69011954 3.125 22.0625 C-1.19640391 21.93539989 -4.81740274 20.10630066 -7.9375 17.1875 C-9.40158957 14.17319794 -9.46518552 12.32275374 -9 9 C-6.67773363 4.61349686 -4.43658969 2.21829484 0 0 Z " fill="#0A0B0B" transform="translate(271,377)"/>
<path d="M0 0 C1.29640378 0.59393382 2.58698839 1.20057989 3.875 1.8125 C4.95394531 2.31716797 4.95394531 2.31716797 6.0546875 2.83203125 C8 4 8 4 10 7 C10.83571542 11.69760034 10.62775298 15.03875324 8 19.0625 C4.67478204 21.2100366 2.81976736 21.74540049 -1.06640625 21.48828125 C-4.45966968 20.63139654 -5.98413808 18.74890261 -8 16 C-9.50798772 12.41852916 -9.01855652 11.05474174 -7.75 7.3125 C-6 4 -6 4 -3 2 C-2.01 2 -1.02 2 0 2 C0 1.34 0 0.68 0 0 Z " fill="#0C0D0D" transform="translate(223,377)"/>
<path d="M0 0 C0.99 0.33 1.98 0.66 3 1 C1.71283353 2.00578589 0.42011342 3.00446798 -0.875 4 C-1.59429687 4.556875 -2.31359375 5.11375 -3.0546875 5.6875 C-5 7 -5 7 -7 7 C-7.268125 7.61875 -7.53625 8.2375 -7.8125 8.875 C-9 11 -9 11 -12 13 C-10.32939586 6.6888288 -5.18555656 3.4570377 0 0 Z " fill="#1B1C1B" transform="translate(407,442)"/>
<path d="M0 0 C0.66 0.33 1.32 0.66 2 1 C-0.24773615 4.43075518 -2.48586126 5.95689608 -6 8 C-8.05531111 9.60934738 -10.02032565 11.29655928 -12 13 C-9.66918786 7.27891565 -4.77149584 3.68086822 0 0 Z " fill="#1B1B1B" transform="translate(143,322)"/>
<path d="M0 0 C1.32 0.99 2.64 1.98 4 3 C3.38511719 3.26554687 2.77023437 3.53109375 2.13671875 3.8046875 C1.32847656 4.15789062 0.52023437 4.51109375 -0.3125 4.875 C-1.11300781 5.22304688 -1.91351563 5.57109375 -2.73828125 5.9296875 C-5.1961834 7.02571894 -5.1961834 7.02571894 -8 9 C-6.64531705 4.12314139 -4.28324091 2.51407619 0 0 Z " fill="#1D1D1D" transform="translate(271,377)"/>
<path d="M0 0 C1.65 1.65 3.3 3.3 5 5 C2.14723863 7.93200474 -0.65079784 10.64315404 -4 13 C-2.68775452 9.06326356 -1.08089673 6.77280706 2 4 C1.34 2.68 0.68 1.36 0 0 Z " fill="#222322" transform="translate(267,592)"/>
<path d="M0 0 C0.66 0.33 1.32 0.66 2 1 C1.50628906 1.54269531 1.01257813 2.08539063 0.50390625 2.64453125 C-0.13675781 3.35996094 -0.77742187 4.07539063 -1.4375 4.8125 C-2.07558594 5.52019531 -2.71367188 6.22789062 -3.37109375 6.95703125 C-5.19086012 8.99896152 -5.19086012 8.99896152 -6 12 C-6.99 12.33 -7.98 12.66 -9 13 C-7.47987323 7.59510481 -3.72614782 4.01507372 0 0 Z " fill="#1C1C1C" transform="translate(753,481)"/>
<path d="M0 0 C0.9354491 3.42255584 1.15817644 6.44103015 1 10 C0.67 10.33 0.34 10.66 0 11 C-0.36760731 13.32817964 -0.70241581 15.6618385 -1 18 C-1.33 18 -1.66 18 -2 18 C-2.2361959 11.59646678 -1.823321 6.15370839 0 0 Z " fill="#2C2C2B" transform="translate(331,452)"/>
<path d="M0 0 C-1.38188453 3.21043882 -2.92421903 5.04936365 -5.625 7.25 C-6.57246094 8.03117187 -6.57246094 8.03117187 -7.5390625 8.828125 C-8.02117187 9.21484375 -8.50328125 9.6015625 -9 10 C-7.6834994 5.81113445 -4.97532335 0 0 0 Z " fill="#202020" transform="translate(328,343)"/>
<path d="M0 0 C0.99 0.495 0.99 0.495 2 1 C1.01 1.495 1.01 1.495 0 2 C0 1.34 0 0.68 0 0 Z M-3 3 C-2.34 3.33 -1.68 3.66 -1 4 C-3.31 6.64 -5.62 9.28 -8 12 C-8 7.61031544 -5.87194899 6.23094261 -3 3 Z " fill="#1D1D1D" transform="translate(344,435)"/>
<path d="M0 0 C1.32 0.33 2.64 0.66 4 1 C1.36 2.98 -1.28 4.96 -4 7 C-4.66 6.67 -5.32 6.34 -6 6 C-4 4 -2 2 0 0 Z " fill="#171717" transform="translate(381,578)"/>
<path d="M0 0 C4.79280002 0.80904103 6.13520113 3.25984591 9 7 C6 7 6 7 4.39453125 5.46875 C3.87246094 4.8190625 3.35039063 4.169375 2.8125 3.5 C2.28269531 2.8503125 1.75289062 2.200625 1.20703125 1.53125 C0.80871094 1.0259375 0.41039062 0.520625 0 0 Z " fill="#1A1A1A" transform="translate(746,543)"/>
<path d="M0 0 C3 3 3 3 3.1875 6.6875 C3.125625 7.780625 3.06375 8.87375 3 10 C2.01 9.67 1.02 9.34 0 9 C0 6.03 0 3.06 0 0 Z " fill="#1B1C1C" transform="translate(278,382)"/>
<path d="M0 0 C0.66 0.33 1.32 0.66 2 1 C0.71034824 2.37562854 -0.62689293 3.70766393 -2 5 C-2.66 5 -3.32 5 -4 5 C-4.28875 5.639375 -4.5775 6.27875 -4.875 6.9375 C-6 9 -6 9 -8 10 C-6.44303593 6.17836093 -3.96591316 3.81381505 -1 1 C-0.67 0.67 -0.34 0.34 0 0 Z " fill="#202020" transform="translate(712,441)"/>
<path d="M0 0 C0.66 0.33 1.32 0.66 2 1 C-0.64 3.64 -3.28 6.28 -6 9 C-6.66 8.34 -7.32 7.68 -8 7 C-5.36 4.69 -2.72 2.38 0 0 Z " fill="#20211F" transform="translate(157,507)"/>
<path d="M0 0 C0.99 0.33 1.98 0.66 3 1 C1.5625 2.5625 1.5625 2.5625 -1 4 C-4.05380927 3.96846324 -6.99653222 3.53266629 -10 3 C-10 2.67 -10 2.34 -10 2 C-9.04287109 1.90912109 -9.04287109 1.90912109 -8.06640625 1.81640625 C-6.82697266 1.69072266 -6.82697266 1.69072266 -5.5625 1.5625 C-4.73878906 1.48128906 -3.91507813 1.40007813 -3.06640625 1.31640625 C-1.01337975 1.21069185 -1.01337975 1.21069185 0 0 Z " fill="#232323" transform="translate(613,535)"/>
<path d="M0 0 C0.99 0.33 1.98 0.66 3 1 C2.2884375 1.8353125 2.2884375 1.8353125 1.5625 2.6875 C-0.12395996 5.18346074 -0.58953107 7.0446237 -1 10 C-1.33 10 -1.66 10 -2 10 C-2.25 3.375 -2.25 3.375 0 0 Z " fill="#222222" transform="translate(61,481)"/>
<path d="M0 0 C6.625 -0.25 6.625 -0.25 10 2 C2.25 3.125 2.25 3.125 0 2 C0 1.34 0 0.68 0 0 Z " fill="#131415" transform="translate(149,389)"/>
<path d="M0 0 C0.33 0.99 0.66 1.98 1 3 C-1.31 4.98 -3.62 6.96 -6 9 C-4.25618453 5.51236907 -2.47193291 2.96631949 0 0 Z " fill="#20201F" transform="translate(197,594)"/>
<path d="M0 0 C0.33 0.99 0.66 1.98 1 3 C-1.97 5.475 -1.97 5.475 -5 8 C-4.45773019 4.20411134 -2.79872437 2.52788007 0 0 Z " fill="#141414" transform="translate(557,490)"/>
<path d="M0 0 C3 1 3 1 5 4 C4.67 4.99 4.34 5.98 4 7 C2 5.1875 2 5.1875 0 3 C0 2.01 0 1.02 0 0 Z " fill="#151515" transform="translate(33,507)"/>
<path d="M0 0 C0.33 0 0.66 0 1 0 C1 2.31 1 4.62 1 7 C0.67 7 0.34 7 0 7 C0 4.69 0 2.38 0 0 Z " fill="#2B2C2C" transform="translate(572,484)"/>
<path d="M0 0 C0.33 0 0.66 0 1 0 C1 1.98 1 3.96 1 6 C0.67 6 0.34 6 0 6 C0 4.02 0 2.04 0 0 Z " fill="#292A29" transform="translate(656,526)"/>
<path d="M0 0 C0.33 0 0.66 0 1 0 C1 1.65 1 3.3 1 5 C0.67 5 0.34 5 0 5 C0 3.35 0 1.7 0 0 Z " fill="#2B2A2A" transform="translate(136,585)"/>
<path d="M0 0 C0.33 1.32 0.66 2.64 1 4 C0.34 3.34 -0.32 2.68 -1 2 C-0.67 1.34 -0.34 0.68 0 0 Z " fill="#2A2B2A" transform="translate(737,514)"/>
<path d="M0 0 C1.485 0.99 1.485 0.99 3 2 C1.68 1.67 0.36 1.34 -1 1 C-0.67 0.67 -0.34 0.34 0 0 Z " fill="#323333" transform="translate(787,472)"/>
<path d="M0 0 C0.99 0.33 1.98 0.66 3 1 C2.01 1 1.02 1 0 1 C0 0.67 0 0.34 0 0 Z " fill="#272827" transform="translate(265,595)"/>
<path d="M0 0 C1 4 1 4 1 4 Z " fill="#2A2B2A" transform="translate(369,592)"/>
<path d="M0 0 C0.66 0 1.32 0 2 0 C2 0.66 2 1.32 2 2 C1.34 2 0.68 2 0 2 C0 1.34 0 0.68 0 0 Z " fill="#2A2828" transform="translate(304,579)"/>
<path d="M0 0 C4 1 4 1 4 1 Z " fill="#323130" transform="translate(596,559)"/>
<path d="M0 0 C4 1 4 1 4 1 Z " fill="#2B2B2B" transform="translate(409,532)"/>
<path d="M0 0 C0.99 0.495 0.99 0.495 2 1 C1.67 1.66 1.34 2.32 1 3 C0.67 2.01 0.34 1.02 0 0 Z " fill="#2D2D2E" transform="translate(849,529)"/>
<path d="M0 0 C0.99 0.495 0.99 0.495 2 1 C1.34 1.66 0.68 2.32 0 3 C0 2.01 0 1.02 0 0 Z " fill="#323332" transform="translate(48,525)"/>
<path d="M0 0 C1 4 1 4 1 4 Z " fill="#2A2A2A" transform="translate(724,512)"/>
<path d="M0 0 C0.66 0 1.32 0 2 0 C1.67 0.99 1.34 1.98 1 3 C0.67 2.01 0.34 1.02 0 0 Z " fill="#2E2E2F" transform="translate(952,500)"/>
<path d="M0 0 C4 1 4 1 4 1 Z " fill="#2B2B2A" transform="translate(651,495)"/>
<path d="M0 0 C0.99 0.495 0.99 0.495 2 1 C1.67 1.66 1.34 2.32 1 3 C0.67 2.01 0.34 1.02 0 0 Z " fill="#323232" transform="translate(488,483)"/>
<path d="M0 0 C1 4 1 4 1 4 Z " fill="#30302F" transform="translate(572,476)"/>
<path d="M0 0 C4 1 4 1 4 1 Z " fill="#323230" transform="translate(644,474)"/>
<path d="M0 0 C0.66 0 1.32 0 2 0 C1.67 0.99 1.34 1.98 1 3 C0.67 2.01 0.34 1.02 0 0 Z " fill="#2D2C2C" transform="translate(288,474)"/>
<path d="M0 0 C0.66 0.66 1.32 1.32 2 2 C1.01 1.67 0.02 1.34 -1 1 C-0.67 0.67 -0.34 0.34 0 0 Z " fill="#2B2C2B" transform="translate(137,452)"/>
<path d="M0 0 C1 4 1 4 1 4 Z " fill="#2A2A29" transform="translate(314,362)"/>
<path d="M0 0 C0.66 0.66 1.32 1.32 2 2 C1.01 1.67 0.02 1.34 -1 1 C-0.67 0.67 -0.34 0.34 0 0 Z " fill="#252627" transform="translate(345,359)"/>
<path d="" fill="#2D2E2E" transform="translate(0,0)"/>
<path d="" fill="#2A2A2A" transform="translate(0,0)"/>
<path d="" fill="#323331" transform="translate(0,0)"/>
<path d="M0 0 C3 1 3 1 3 1 Z " fill="#2D2D2C" transform="translate(925,556)"/>
<path d="M0 0 C0.66 0 1.32 0 2 0 C1.67 0.66 1.34 1.32 1 2 C0.67 1.34 0.34 0.68 0 0 Z " fill="#353436" transform="translate(840,553)"/>
<path d="" fill="#2B2B2A" transform="translate(0,0)"/>
<path d="M0 0 C3 1 3 1 3 1 Z " fill="#292727" transform="translate(313,535)"/>
<path d="" fill="#242524" transform="translate(0,0)"/>
<path d="" fill="#282829" transform="translate(0,0)"/>
<path d="" fill="#2D2C2D" transform="translate(0,0)"/>
<path d="" fill="#2A2A2A" transform="translate(0,0)"/>
<path d="" fill="#232324" transform="translate(0,0)"/>
<path d="" fill="#2B2C2B" transform="translate(0,0)"/>
<path d="M0 0 C0.66 0 1.32 0 2 0 C1.67 0.66 1.34 1.32 1 2 C0.67 1.34 0.34 0.68 0 0 Z " fill="#2B2A2A" transform="translate(412,501)"/>
<path d="M0 0 C3 1 3 1 3 1 Z " fill="#2C2A2B" transform="translate(74,501)"/>
<path d="M0 0 C3 1 3 1 3 1 Z " fill="#292728" transform="translate(687,495)"/>
<path d="" fill="#2A2929" transform="translate(0,0)"/>
<path d="" fill="#2E2F2D" transform="translate(0,0)"/>
<path d="M0 0 C3 1 3 1 3 1 Z " fill="#2B2C2B" transform="translate(725,474)"/>
<path d="M0 0 C3 1 3 1 3 1 Z " fill="#313130" transform="translate(581,474)"/>
<path d="" fill="#2D2D2C" transform="translate(0,0)"/>
<path d="M0 0 C3 1 3 1 3 1 Z " fill="#2C2C2C" transform="translate(71,461)"/>
<path d="M0 0 C0.66 0.66 1.32 1.32 2 2 C1.34 2 0.68 2 0 2 C0 1.34 0 0.68 0 0 Z " fill="#353435" transform="translate(488,452)"/>
<path d="M0 0 C3 1 3 1 3 1 Z " fill="#2B2B29" transform="translate(328,436)"/>
<path d="M0 0 C3 1 3 1 3 1 Z " fill="#2D2C2C" transform="translate(313,435)"/>
<path d="M0 0 C3 1 3 1 3 1 Z " fill="#2D2C2D" transform="translate(284,431)"/>
<path d="M0 0 C3 1 3 1 3 1 Z " fill="#2C2B2C" transform="translate(276,431)"/>
<path d="M0 0 C3 1 3 1 3 1 Z " fill="#2D2D2E" transform="translate(203,431)"/>
<path d="M0 0 C3 1 3 1 3 1 Z " fill="#2D2E2D" transform="translate(188,431)"/>
<path d="" fill="#282928" transform="translate(0,0)"/>
<path d="M0 0 C0.66 0.66 1.32 1.32 2 2 C1.34 2 0.68 2 0 2 C0 1.34 0 0.68 0 0 Z " fill="#2C2B2B" transform="translate(314,371)"/>
<path d="" fill="#323131" transform="translate(0,0)"/>
<path d="M0 0 C2 1 2 1 2 1 Z " fill="#2C2B2A" transform="translate(302,634)"/>
<path d="M0 0 C2 1 2 1 2 1 Z " fill="#333230" transform="translate(385,627)"/>
<path d="M0 0 C2 1 2 1 2 1 Z " fill="#2B2D2B" transform="translate(95,609)"/>
<path d="" fill="#313131" transform="translate(0,0)"/>
<path d="" fill="#2A2B2B" transform="translate(0,0)"/>
<path d="M0 0 C2 1 2 1 2 1 Z " fill="#282827" transform="translate(194,594)"/>
<path d="" fill="#2A2B29" transform="translate(0,0)"/>
<path d="" fill="#2C2C2D" transform="translate(0,0)"/>
<path d="" fill="#2B2B2C" transform="translate(0,0)"/>
<path d="" fill="#2B2A2A" transform="translate(0,0)"/>
<path d="" fill="#2A2A2A" transform="translate(0,0)"/>
<path d="" fill="#343333" transform="translate(0,0)"/>
<path d="M0 0 C2 1 2 1 2 1 Z " fill="#30302F" transform="translate(522,556)"/>
<path d="M0 0 C2 1 2 1 2 1 Z " fill="#333231" transform="translate(494,556)"/>
<path d="" fill="#333433" transform="translate(0,0)"/>
<path d="" fill="#262828" transform="translate(0,0)"/>
<path d="" fill="#2F3030" transform="translate(0,0)"/>
<path d="M0 0 C2 1 2 1 2 1 Z " fill="#272627" transform="translate(184,544)"/>
<path d="" fill="#2A2B2B" transform="translate(0,0)"/>
<path d="" fill="#2B2B2C" transform="translate(0,0)"/>
<path d="M0 0 C2 1 2 1 2 1 Z " fill="#292828" transform="translate(96,536)"/>
<path d="" fill="#242525" transform="translate(0,0)"/>
<path d="" fill="#303031" transform="translate(0,0)"/>
<path d="" fill="#282728" transform="translate(0,0)"/>
<path d="M0 0 C2 1 2 1 2 1 Z " fill="#2E2E2D" transform="translate(66,531)"/>
<path d="M0 0 C2 1 2 1 2 1 Z " fill="#2C2C2C" transform="translate(377,530)"/>
<path d="" fill="#2D2D2D" transform="translate(0,0)"/>
<path d="M0 0 C2 1 2 1 2 1 Z " fill="#2C2B2C" transform="translate(372,528)"/>
<path d="" fill="#2A2B2B" transform="translate(0,0)"/>
<path d="M0 0 C2 1 2 1 2 1 Z " fill="#2E2E2D" transform="translate(436,527)"/>
<path d="" fill="#2F2E2E" transform="translate(0,0)"/>
<path d="" fill="#2C2D2B" transform="translate(0,0)"/>
<path d="" fill="#2A2B2B" transform="translate(0,0)"/>
<path d="" fill="#2D2B2D" transform="translate(0,0)"/>
<path d="" fill="#292727" transform="translate(0,0)"/>
<path d="" fill="#2A2A2A" transform="translate(0,0)"/>
<path d="M0 0 C2 1 2 1 2 1 Z " fill="#2B2B2B" transform="translate(524,511)"/>
<path d="" fill="#2F3130" transform="translate(0,0)"/>
<path d="" fill="#2B2B29" transform="translate(0,0)"/>
<path d="" fill="#2D2E2D" transform="translate(0,0)"/>
<path d="" fill="#2B2C2B" transform="translate(0,0)"/>
<path d="" fill="#2F2F30" transform="translate(0,0)"/>
<path d="M0 0 C2 1 2 1 2 1 Z " fill="#2B2B2B" transform="translate(104,504)"/>
<path d="" fill="#2A2A29" transform="translate(0,0)"/>
<path d="" fill="#333434" transform="translate(0,0)"/>
<path d="" fill="#292827" transform="translate(0,0)"/>
<path d="M0 0 C2 1 2 1 2 1 Z " fill="#292928" transform="translate(69,500)"/>
<path d="" fill="#272727" transform="translate(0,0)"/>
<path d="" fill="#343434" transform="translate(0,0)"/>
<path d="M0 0 C2 1 2 1 2 1 Z " fill="#2A2929" transform="translate(732,495)"/>
<path d="" fill="#2A2C2B" transform="translate(0,0)"/>
<path d="M0 0 C2 1 2 1 2 1 Z " fill="#2D2E2F" transform="translate(779,494)"/>
<path d="M0 0 C2 1 2 1 2 1 Z " fill="#2E2D2E" transform="translate(776,494)"/>
<path d="" fill="#2F2F2F" transform="translate(0,0)"/>
<path d="" fill="#30312F" transform="translate(0,0)"/>
<path d="" fill="#272727" transform="translate(0,0)"/>
<path d="M0 0 C2 1 2 1 2 1 Z " fill="#2B2C2C" transform="translate(392,489)"/>
<path d="" fill="#2C2B2B" transform="translate(0,0)"/>
<path d="" fill="#2D2D2C" transform="translate(0,0)"/>
<path d="" fill="#313131" transform="translate(0,0)"/>
<path d="" fill="#333432" transform="translate(0,0)"/>
<path d="M0 0 C2 1 2 1 2 1 Z " fill="#2A2A2C" transform="translate(56,484)"/>
<path d="" fill="#292A2A" transform="translate(0,0)"/>
<path d="" fill="#2A2B2B" transform="translate(0,0)"/>
<path d="M0 0 C2 1 2 1 2 1 Z " fill="#2C2C2B" transform="translate(355,480)"/>
<path d="" fill="#2B2B29" transform="translate(0,0)"/>
<path d="" fill="#333233" transform="translate(0,0)"/>
<path d="" fill="#2B2C2C" transform="translate(0,0)"/>
<path d="M0 0 C2 1 2 1 2 1 Z " fill="#343332" transform="translate(622,474)"/>
<path d="M0 0 C2 1 2 1 2 1 Z " fill="#31332F" transform="translate(590,474)"/>
<path d="M0 0 C2 1 2 1 2 1 Z " fill="#333332" transform="translate(575,474)"/>
<path d="" fill="#323232" transform="translate(0,0)"/>
<path d="" fill="#323333" transform="translate(0,0)"/>
<path d="M0 0 C2 1 2 1 2 1 Z " fill="#323232" transform="translate(782,472)"/>
<path d="M0 0 C2 1 2 1 2 1 Z " fill="#2F2E2D" transform="translate(777,472)"/>
<path d="" fill="#2A2B2B" transform="translate(0,0)"/>
<path d="M0 0 C2 1 2 1 2 1 Z " fill="#2E2E2D" transform="translate(532,469)"/>
<path d="" fill="#2D2D2C" transform="translate(0,0)"/>
<path d="" fill="#2D2D2D" transform="translate(0,0)"/>
<path d="M0 0 C2 1 2 1 2 1 Z " fill="#2F2F2E" transform="translate(425,459)"/>
<path d="" fill="#343433" transform="translate(0,0)"/>
<path d="M0 0 C2 1 2 1 2 1 Z " fill="#3D3D3E" transform="translate(952,447)"/>
<path d="" fill="#2F3030" transform="translate(0,0)"/>
<path d="M0 0 C2 1 2 1 2 1 Z " fill="#2E3030" transform="translate(405,441)"/>
<path d="M0 0 C2 1 2 1 2 1 Z " fill="#2C2A2B" transform="translate(336,440)"/>
<path d="" fill="#2E2D2D" transform="translate(0,0)"/>
<path d="M0 0 C2 1 2 1 2 1 Z " fill="#2D2D2D" transform="translate(334,436)"/>
<path d="" fill="#303130" transform="translate(0,0)"/>
<path d="" fill="#30302F" transform="translate(0,0)"/>
<path d="" fill="#2E2E2F" transform="translate(0,0)"/>
<path d="" fill="#2F302F" transform="translate(0,0)"/>
<path d="" fill="#2D2D2D" transform="translate(0,0)"/>
<path d="" fill="#2F312F" transform="translate(0,0)"/>
<path d="" fill="#252524" transform="translate(0,0)"/>
<path d="M0 0 C2 1 2 1 2 1 Z " fill="#242322" transform="translate(148,359)"/>
<path d="M0 0 C2 1 2 1 2 1 Z " fill="#2E2C2C" transform="translate(289,349)"/>
<path d="M0 0 C2 1 2 1 2 1 Z " fill="#373939" transform="translate(159,315)"/>
<path d="" fill="#7B7B7B" transform="translate(0,0)"/>
<path d="" fill="#383938" transform="translate(0,0)"/>
<path d="" fill="#373737" transform="translate(0,0)"/>
<path d="" fill="#373836" transform="translate(0,0)"/>
<path d="" fill="#383636" transform="translate(0,0)"/>
<path d="" fill="#363535" transform="translate(0,0)"/>
<path d="" fill="#363636" transform="translate(0,0)"/>
<path d="" fill="#383735" transform="translate(0,0)"/>
<path d="" fill="#363636" transform="translate(0,0)"/>
<path d="" fill="#343235" transform="translate(0,0)"/>
<path d="" fill="#373636" transform="translate(0,0)"/>
<path d="" fill="#333534" transform="translate(0,0)"/>
<path d="" fill="#313230" transform="translate(0,0)"/>
<path d="" fill="#2D2D2F" transform="translate(0,0)"/>
<path d="" fill="#2C2D2C" transform="translate(0,0)"/>
<path d="" fill="#2C2B2A" transform="translate(0,0)"/>
<path d="" fill="#323030" transform="translate(0,0)"/>
<path d="" fill="#373636" transform="translate(0,0)"/>
<path d="" fill="#2E2F30" transform="translate(0,0)"/>
<path d="" fill="#373535" transform="translate(0,0)"/>
<path d="" fill="#363734" transform="translate(0,0)"/>
<path d="" fill="#373535" transform="translate(0,0)"/>
<path d="" fill="#2B2B2B" transform="translate(0,0)"/>
<path d="" fill="#303230" transform="translate(0,0)"/>
<path d="" fill="#333131" transform="translate(0,0)"/>
<path d="" fill="#2C2A2A" transform="translate(0,0)"/>
<path d="" fill="#2E2F2D" transform="translate(0,0)"/>
<path d="" fill="#373636" transform="translate(0,0)"/>
<path d="" fill="#29282A" transform="translate(0,0)"/>
<path d="" fill="#282826" transform="translate(0,0)"/>
<path d="" fill="#2D2E2E" transform="translate(0,0)"/>
<path d="" fill="#2A2A29" transform="translate(0,0)"/>
<path d="" fill="#2D2E2D" transform="translate(0,0)"/>
<path d="" fill="#2B2C2B" transform="translate(0,0)"/>
<path d="" fill="#292928" transform="translate(0,0)"/>
<path d="" fill="#2B2A29" transform="translate(0,0)"/>
<path d="" fill="#2B2A2A" transform="translate(0,0)"/>
<path d="" fill="#2F2F31" transform="translate(0,0)"/>
<path d="" fill="#2D2B2C" transform="translate(0,0)"/>
<path d="" fill="#2D2E2F" transform="translate(0,0)"/>
<path d="" fill="#2C2C2B" transform="translate(0,0)"/>
<path d="" fill="#2D2D2C" transform="translate(0,0)"/>
<path d="" fill="#2A2B27" transform="translate(0,0)"/>
<path d="" fill="#292929" transform="translate(0,0)"/>
<path d="" fill="#2B2928" transform="translate(0,0)"/>
<path d="" fill="#2B2C29" transform="translate(0,0)"/>
<path d="" fill="#2A2C29" transform="translate(0,0)"/>
<path d="" fill="#2D2D2B" transform="translate(0,0)"/>
<path d="" fill="#343234" transform="translate(0,0)"/>
<path d="" fill="#2C2B2C" transform="translate(0,0)"/>
<path d="" fill="#2C2C2C" transform="translate(0,0)"/>
<path d="" fill="#2B2A2A" transform="translate(0,0)"/>
<path d="" fill="#2C2A2B" transform="translate(0,0)"/>
<path d="" fill="#2A2929" transform="translate(0,0)"/>
<path d="" fill="#2A2927" transform="translate(0,0)"/>
<path d="" fill="#2F2E2D" transform="translate(0,0)"/>
<path d="" fill="#2B2929" transform="translate(0,0)"/>
<path d="" fill="#2E2D2D" transform="translate(0,0)"/>
<path d="" fill="#2C2A2B" transform="translate(0,0)"/>
<path d="" fill="#2B2B2B" transform="translate(0,0)"/>
<path d="" fill="#292A29" transform="translate(0,0)"/>
<path d="" fill="#2A2A28" transform="translate(0,0)"/>
<path d="" fill="#2A292A" transform="translate(0,0)"/>
<path d="" fill="#2C2D2B" transform="translate(0,0)"/>
<path d="" fill="#292C2B" transform="translate(0,0)"/>
<path d="" fill="#292A2A" transform="translate(0,0)"/>
<path d="" fill="#2B292B" transform="translate(0,0)"/>
<path d="" fill="#2B2827" transform="translate(0,0)"/>
<path d="" fill="#2A2D2A" transform="translate(0,0)"/>
<path d="" fill="#2A2A29" transform="translate(0,0)"/>
<path d="" fill="#2A2828" transform="translate(0,0)"/>
<path d="" fill="#292A2A" transform="translate(0,0)"/>
<path d="" fill="#2A2A28" transform="translate(0,0)"/>
<path d="" fill="#2A292A" transform="translate(0,0)"/>
<path d="" fill="#2C2C2C" transform="translate(0,0)"/>
<path d="" fill="#2C2A28" transform="translate(0,0)"/>
<path d="" fill="#2B2C2B" transform="translate(0,0)"/>
<path d="" fill="#292827" transform="translate(0,0)"/>
<path d="" fill="#2F2B2A" transform="translate(0,0)"/>
<path d="" fill="#2B2B29" transform="translate(0,0)"/>
<path d="" fill="#2E2C2D" transform="translate(0,0)"/>
<path d="" fill="#2E2D2D" transform="translate(0,0)"/>
<path d="" fill="#2D2D2D" transform="translate(0,0)"/>
<path d="" fill="#2E2E2C" transform="translate(0,0)"/>
<path d="" fill="#2F2F2C" transform="translate(0,0)"/>
<path d="" fill="#323334" transform="translate(0,0)"/>
<path d="" fill="#2A2B29" transform="translate(0,0)"/>
<path d="" fill="#282929" transform="translate(0,0)"/>
<path d="" fill="#282627" transform="translate(0,0)"/>
<path d="" fill="#2B2C2B" transform="translate(0,0)"/>
<path d="" fill="#282926" transform="translate(0,0)"/>
<path d="" fill="#2D2C2C" transform="translate(0,0)"/>
<path d="" fill="#2A2A28" transform="translate(0,0)"/>
<path d="" fill="#2D2C2C" transform="translate(0,0)"/>
<path d="" fill="#2D2D2C" transform="translate(0,0)"/>
<path d="" fill="#2C2C28" transform="translate(0,0)"/>
<path d="" fill="#2C2A2B" transform="translate(0,0)"/>
<path d="" fill="#282928" transform="translate(0,0)"/>
<path d="" fill="#282929" transform="translate(0,0)"/>
<path d="" fill="#2A2727" transform="translate(0,0)"/>
<path d="" fill="#262725" transform="translate(0,0)"/>
<path d="" fill="#292928" transform="translate(0,0)"/>
<path d="" fill="#2F2E30" transform="translate(0,0)"/>
<path d="" fill="#383B38" transform="translate(0,0)"/>
<path d="" fill="#383738" transform="translate(0,0)"/>
<path d="" fill="#333535" transform="translate(0,0)"/>
<path d="" fill="#343333" transform="translate(0,0)"/>
<path d="" fill="#373736" transform="translate(0,0)"/>
<path d="" fill="#393938" transform="translate(0,0)"/>
<path d="" fill="#333631" transform="translate(0,0)"/>
<path d="" fill="#323130" transform="translate(0,0)"/>
<path d="" fill="#2F2E2D" transform="translate(0,0)"/>
<path d="" fill="#383938" transform="translate(0,0)"/>
<path d="" fill="#3A3838" transform="translate(0,0)"/>
<path d="" fill="#363835" transform="translate(0,0)"/>
<path d="" fill="#2B2A2B" transform="translate(0,0)"/>
<path d="" fill="#2C2B2C" transform="translate(0,0)"/>
<path d="" fill="#2B292A" transform="translate(0,0)"/>
<path d="" fill="#2F2E2E" transform="translate(0,0)"/>
<path d="" fill="#383937" transform="translate(0,0)"/>
<path d="" fill="#393A39" transform="translate(0,0)"/>
<path d="" fill="#363736" transform="translate(0,0)"/>
<path d="" fill="#393737" transform="translate(0,0)"/>
<path d="" fill="#363635" transform="translate(0,0)"/>
<path d="" fill="#373736" transform="translate(0,0)"/>
<path d="" fill="#373736" transform="translate(0,0)"/>
<path d="" fill="#393A37" transform="translate(0,0)"/>
<path d="" fill="#373734" transform="translate(0,0)"/>
<path d="" fill="#373638" transform="translate(0,0)"/>
<path d="" fill="#373637" transform="translate(0,0)"/>
<path d="" fill="#323331" transform="translate(0,0)"/>
<path d="" fill="#353634" transform="translate(0,0)"/>
<path d="" fill="#373537" transform="translate(0,0)"/>
<path d="" fill="#323232" transform="translate(0,0)"/>
<path d="" fill="#333432" transform="translate(0,0)"/>
<path d="" fill="#353533" transform="translate(0,0)"/>
<path d="" fill="#343231" transform="translate(0,0)"/>
<path d="" fill="#353332" transform="translate(0,0)"/>
<path d="" fill="#313030" transform="translate(0,0)"/>
<path d="" fill="#323332" transform="translate(0,0)"/>
<path d="" fill="#323430" transform="translate(0,0)"/>
<path d="" fill="#292A28" transform="translate(0,0)"/>
<path d="" fill="#353635" transform="translate(0,0)"/>
<path d="" fill="#343334" transform="translate(0,0)"/>
<path d="" fill="#2A282A" transform="translate(0,0)"/>
<path d="" fill="#363635" transform="translate(0,0)"/>
<path d="" fill="#323332" transform="translate(0,0)"/>
<path d="" fill="#262726" transform="translate(0,0)"/>
<path d="" fill="#282829" transform="translate(0,0)"/>
<path d="" fill="#2A2A2A" transform="translate(0,0)"/>
<path d="" fill="#2D2D2E" transform="translate(0,0)"/>
<path d="" fill="#2F312F" transform="translate(0,0)"/>
<path d="" fill="#313233" transform="translate(0,0)"/>
<path d="" fill="#2F3030" transform="translate(0,0)"/>
<path d="" fill="#383836" transform="translate(0,0)"/>
<path d="" fill="#2D2E2C" transform="translate(0,0)"/>
<path d="" fill="#2B2E2A" transform="translate(0,0)"/>
<path d="" fill="#272728" transform="translate(0,0)"/>
<path d="" fill="#343535" transform="translate(0,0)"/>
<path d="" fill="#2A2A2B" transform="translate(0,0)"/>
<path d="" fill="#303030" transform="translate(0,0)"/>
<path d="" fill="#2D2B2B" transform="translate(0,0)"/>
<path d="" fill="#2A2828" transform="translate(0,0)"/>
<path d="" fill="#302E2D" transform="translate(0,0)"/>
<path d="" fill="#292928" transform="translate(0,0)"/>
<path d="" fill="#2F312F" transform="translate(0,0)"/>
<path d="" fill="#2F2F2D" transform="translate(0,0)"/>
<path d="" fill="#242325" transform="translate(0,0)"/>
<path d="" fill="#272725" transform="translate(0,0)"/>
<path d="" fill="#2C2A29" transform="translate(0,0)"/>
<path d="" fill="#292B28" transform="translate(0,0)"/>
<path d="" fill="#29292B" transform="translate(0,0)"/>
<path d="" fill="#2D2E2E" transform="translate(0,0)"/>
<path d="" fill="#2A2828" transform="translate(0,0)"/>
<path d="" fill="#2D2B2B" transform="translate(0,0)"/>
<path d="" fill="#333330" transform="translate(0,0)"/>
<path d="" fill="#2D2C2C" transform="translate(0,0)"/>
<path d="" fill="#2D2D2C" transform="translate(0,0)"/>
<path d="" fill="#2B2A28" transform="translate(0,0)"/>
<path d="" fill="#2F2E2E" transform="translate(0,0)"/>
<path d="" fill="#2C2C2D" transform="translate(0,0)"/>
<path d="" fill="#272526" transform="translate(0,0)"/>
<path d="" fill="#303130" transform="translate(0,0)"/>
<path d="" fill="#2E2D2C" transform="translate(0,0)"/>
<path d="" fill="#2C2D2B" transform="translate(0,0)"/>
<path d="" fill="#2D2D2C" transform="translate(0,0)"/>
<path d="" fill="#292927" transform="translate(0,0)"/>
<path d="" fill="#2E2E2B" transform="translate(0,0)"/>
<path d="" fill="#2B2B2A" transform="translate(0,0)"/>
<path d="" fill="#282728" transform="translate(0,0)"/>
<path d="" fill="#2F2E2D" transform="translate(0,0)"/>
<path d="" fill="#29292B" transform="translate(0,0)"/>
<path d="" fill="#2A2A29" transform="translate(0,0)"/>
<path d="" fill="#292929" transform="translate(0,0)"/>
<path d="" fill="#2E2C2F" transform="translate(0,0)"/>
<path d="" fill="#2D2D2C" transform="translate(0,0)"/>
<path d="" fill="#2C2D2A" transform="translate(0,0)"/>
<path d="" fill="#2D2C2C" transform="translate(0,0)"/>
<path d="" fill="#323132" transform="translate(0,0)"/>
<path d="" fill="#2D2C2D" transform="translate(0,0)"/>
<path d="" fill="#2F302D" transform="translate(0,0)"/>
<path d="" fill="#272728" transform="translate(0,0)"/>
<path d="" fill="#2E2D2E" transform="translate(0,0)"/>
<path d="" fill="#2E2F2E" transform="translate(0,0)"/>
<path d="" fill="#2B2C2A" transform="translate(0,0)"/>
<path d="" fill="#2D2C2B" transform="translate(0,0)"/>
<path d="" fill="#2E2E2C" transform="translate(0,0)"/>
<path d="" fill="#2D2B2C" transform="translate(0,0)"/>
<path d="" fill="#2C2B2B" transform="translate(0,0)"/>
<path d="" fill="#2E2C2C" transform="translate(0,0)"/>
<path d="" fill="#303031" transform="translate(0,0)"/>
<path d="" fill="#2C2D2C" transform="translate(0,0)"/>
<path d="" fill="#2B2B2A" transform="translate(0,0)"/>
<path d="" fill="#2B2C2B" transform="translate(0,0)"/>
<path d="" fill="#2B2C2B" transform="translate(0,0)"/>
<path d="" fill="#2D2D2C" transform="translate(0,0)"/>
<path d="" fill="#282628" transform="translate(0,0)"/>
<path d="" fill="#333332" transform="translate(0,0)"/>
<path d="" fill="#2A292A" transform="translate(0,0)"/>
<path d="" fill="#2E2F2E" transform="translate(0,0)"/>
<path d="" fill="#2F2E2F" transform="translate(0,0)"/>
<path d="" fill="#232423" transform="translate(0,0)"/>
<path d="" fill="#2D2C2A" transform="translate(0,0)"/>
<path d="" fill="#2B2A2D" transform="translate(0,0)"/>
<path d="" fill="#333433" transform="translate(0,0)"/>
<path d="" fill="#343432" transform="translate(0,0)"/>
<path d="" fill="#292A2C" transform="translate(0,0)"/>
<path d="" fill="#282A2A" transform="translate(0,0)"/>
<path d="" fill="#333232" transform="translate(0,0)"/>
<path d="" fill="#303131" transform="translate(0,0)"/>
<path d="" fill="#302F2E" transform="translate(0,0)"/>
<path d="" fill="#323333" transform="translate(0,0)"/>
<path d="" fill="#282829" transform="translate(0,0)"/>
<path d="" fill="#292929" transform="translate(0,0)"/>
<path d="" fill="#2B2C2B" transform="translate(0,0)"/>
<path d="" fill="#2A2D2C" transform="translate(0,0)"/>
<path d="" fill="#282927" transform="translate(0,0)"/>
<path d="" fill="#28292B" transform="translate(0,0)"/>
<path d="" fill="#2A2829" transform="translate(0,0)"/>
<path d="" fill="#2E2E2E" transform="translate(0,0)"/>
<path d="" fill="#2E2D2D" transform="translate(0,0)"/>
<path d="" fill="#2E2D2F" transform="translate(0,0)"/>
<path d="" fill="#2C2C2A" transform="translate(0,0)"/>
<path d="" fill="#2A2626" transform="translate(0,0)"/>
<path d="" fill="#2C2B2B" transform="translate(0,0)"/>
<path d="" fill="#302F30" transform="translate(0,0)"/>
<path d="" fill="#262728" transform="translate(0,0)"/>
<path d="" fill="#2B2C2D" transform="translate(0,0)"/>
<path d="" fill="#2A2828" transform="translate(0,0)"/>
<path d="" fill="#2F3130" transform="translate(0,0)"/>
<path d="" fill="#242525" transform="translate(0,0)"/>
<path d="" fill="#29282A" transform="translate(0,0)"/>
<path d="" fill="#2C2A2A" transform="translate(0,0)"/>
<path d="" fill="#292A2A" transform="translate(0,0)"/>
<path d="" fill="#333434" transform="translate(0,0)"/>
<path d="" fill="#303132" transform="translate(0,0)"/>
<path d="" fill="#2B2D2C" transform="translate(0,0)"/>
<path d="" fill="#2A292A" transform="translate(0,0)"/>
<path d="" fill="#2A2A2A" transform="translate(0,0)"/>
<path d="" fill="#2A2928" transform="translate(0,0)"/>
<path d="" fill="#292B2A" transform="translate(0,0)"/>
<path d="" fill="#2C2A2A" transform="translate(0,0)"/>
<path d="" fill="#2B2B2A" transform="translate(0,0)"/>
<path d="" fill="#2C2D2C" transform="translate(0,0)"/>
<path d="" fill="#2C2C2B" transform="translate(0,0)"/>
<path d="" fill="#2C2C2A" transform="translate(0,0)"/>
<path d="" fill="#2A2828" transform="translate(0,0)"/>
<path d="" fill="#2C2C2B" transform="translate(0,0)"/>
<path d="" fill="#2C2A2A" transform="translate(0,0)"/>
<path d="" fill="#2C2B2C" transform="translate(0,0)"/>
<path d="" fill="#2B2D2C" transform="translate(0,0)"/>
<path d="" fill="#2B2B29" transform="translate(0,0)"/>
<path d="" fill="#2B2A2A" transform="translate(0,0)"/>
<path d="" fill="#2D2D2C" transform="translate(0,0)"/>
<path d="" fill="#2D2B2D" transform="translate(0,0)"/>
<path d="" fill="#2B2A29" transform="translate(0,0)"/>
<path d="" fill="#2A292B" transform="translate(0,0)"/>
<path d="" fill="#292A27" transform="translate(0,0)"/>
<path d="" fill="#262626" transform="translate(0,0)"/>
<path d="" fill="#2D2D2B" transform="translate(0,0)"/>
<path d="" fill="#343334" transform="translate(0,0)"/>
<path d="" fill="#2B2C2A" transform="translate(0,0)"/>
<path d="" fill="#2A2828" transform="translate(0,0)"/>
<path d="" fill="#272627" transform="translate(0,0)"/>
<path d="" fill="#2D2B2B" transform="translate(0,0)"/>
<path d="" fill="#292A2A" transform="translate(0,0)"/>
<path d="" fill="#2B2C2B" transform="translate(0,0)"/>
<path d="" fill="#2E2E2F" transform="translate(0,0)"/>
<path d="" fill="#2B2C2B" transform="translate(0,0)"/>
<path d="" fill="#2F2E2F" transform="translate(0,0)"/>
<path d="" fill="#2E2E2E" transform="translate(0,0)"/>
<path d="" fill="#2E2C2D" transform="translate(0,0)"/>
<path d="" fill="#2E2D2D" transform="translate(0,0)"/>
<path d="" fill="#292B26" transform="translate(0,0)"/>
<path d="" fill="#2B2C2B" transform="translate(0,0)"/>
<path d="" fill="#343333" transform="translate(0,0)"/>
<path d="" fill="#2E302F" transform="translate(0,0)"/>
<path d="" fill="#282928" transform="translate(0,0)"/>
<path d="" fill="#292B29" transform="translate(0,0)"/>
<path d="" fill="#2B2B2A" transform="translate(0,0)"/>
<path d="" fill="#2A2A28" transform="translate(0,0)"/>
<path d="" fill="#272526" transform="translate(0,0)"/>
<path d="" fill="#30302E" transform="translate(0,0)"/>
<path d="" fill="#323131" transform="translate(0,0)"/>
<path d="" fill="#2A2B2C" transform="translate(0,0)"/>
<path d="" fill="#30312E" transform="translate(0,0)"/>
<path d="" fill="#2D2E2F" transform="translate(0,0)"/>
<path d="" fill="#2A2A2B" transform="translate(0,0)"/>
<path d="" fill="#2A2B2A" transform="translate(0,0)"/>
<path d="" fill="#2C2C2B" transform="translate(0,0)"/>
<path d="" fill="#2C2B2A" transform="translate(0,0)"/>
<path d="" fill="#262428" transform="translate(0,0)"/>
<path d="" fill="#2B2A28" transform="translate(0,0)"/>
<path d="" fill="#2C2D2D" transform="translate(0,0)"/>
<path d="" fill="#303130" transform="translate(0,0)"/>
<path d="" fill="#2D2C2C" transform="translate(0,0)"/>
<path d="" fill="#2C2E2C" transform="translate(0,0)"/>
<path d="" fill="#2B2B2A" transform="translate(0,0)"/>
<path d="" fill="#2B2929" transform="translate(0,0)"/>
<path d="" fill="#2C2B2C" transform="translate(0,0)"/>
<path d="" fill="#2F2F31" transform="translate(0,0)"/>
<path d="" fill="#2C2D2B" transform="translate(0,0)"/>
<path d="" fill="#2E2D2E" transform="translate(0,0)"/>
<path d="" fill="#323130" transform="translate(0,0)"/>
<path d="" fill="#2A2B2B" transform="translate(0,0)"/>
<path d="" fill="#2C2D2B" transform="translate(0,0)"/>
<path d="" fill="#262726" transform="translate(0,0)"/>
<path d="" fill="#282827" transform="translate(0,0)"/>
<path d="" fill="#2C2B2C" transform="translate(0,0)"/>
<path d="" fill="#2C2B2B" transform="translate(0,0)"/>
<path d="" fill="#2E3030" transform="translate(0,0)"/>
<path d="" fill="#2F3030" transform="translate(0,0)"/>
<path d="" fill="#2B2B2A" transform="translate(0,0)"/>
<path d="" fill="#2B2C2C" transform="translate(0,0)"/>
<path d="" fill="#323333" transform="translate(0,0)"/>
<path d="" fill="#2A2C29" transform="translate(0,0)"/>
<path d="" fill="#2B2A2C" transform="translate(0,0)"/>
<path d="" fill="#353535" transform="translate(0,0)"/>
<path d="" fill="#282726" transform="translate(0,0)"/>
<path d="" fill="#2C2D2C" transform="translate(0,0)"/>
<path d="" fill="#2A2A2C" transform="translate(0,0)"/>
<path d="" fill="#2B2D2A" transform="translate(0,0)"/>
<path d="" fill="#2B2D29" transform="translate(0,0)"/>
<path d="" fill="#2B2B2A" transform="translate(0,0)"/>
<path d="" fill="#2D2B2D" transform="translate(0,0)"/>
<path d="" fill="#313232" transform="translate(0,0)"/>
<path d="" fill="#2B2A28" transform="translate(0,0)"/>
<path d="" fill="#313231" transform="translate(0,0)"/>
<path d="" fill="#2C2D2B" transform="translate(0,0)"/>
<path d="" fill="#2D302F" transform="translate(0,0)"/>
<path d="" fill="#323436" transform="translate(0,0)"/>
<path d="" fill="#2E2D2C" transform="translate(0,0)"/>
<path d="" fill="#282829" transform="translate(0,0)"/>
<path d="" fill="#323132" transform="translate(0,0)"/>
<path d="" fill="#2E2E2C" transform="translate(0,0)"/>
<path d="" fill="#282B2A" transform="translate(0,0)"/>
<path d="" fill="#2B2A2A" transform="translate(0,0)"/>
<path d="" fill="#2A292A" transform="translate(0,0)"/>
<path d="" fill="#2B2B2B" transform="translate(0,0)"/>
<path d="" fill="#2A2D2B" transform="translate(0,0)"/>
<path d="" fill="#2D2E2D" transform="translate(0,0)"/>
<path d="" fill="#28282A" transform="translate(0,0)"/>
<path d="" fill="#2B2828" transform="translate(0,0)"/>
<path d="" fill="#2C2A2C" transform="translate(0,0)"/>
<path d="" fill="#2B2A2D" transform="translate(0,0)"/>
<path d="" fill="#2A292B" transform="translate(0,0)"/>
<path d="" fill="#242626" transform="translate(0,0)"/>
<path d="" fill="#2D2C2B" transform="translate(0,0)"/>
<path d="" fill="#383736" transform="translate(0,0)"/>
<path d="" fill="#2D2E2E" transform="translate(0,0)"/>
<path d="" fill="#292927" transform="translate(0,0)"/>
<path d="" fill="#343433" transform="translate(0,0)"/>
<path d="" fill="#29292A" transform="translate(0,0)"/>
<path d="" fill="#2E2D2C" transform="translate(0,0)"/>
<path d="" fill="#292928" transform="translate(0,0)"/>
<path d="" fill="#2F3030" transform="translate(0,0)"/>
<path d="" fill="#323230" transform="translate(0,0)"/>
<path d="" fill="#333331" transform="translate(0,0)"/>
<path d="" fill="#292B29" transform="translate(0,0)"/>
<path d="" fill="#2A2B2C" transform="translate(0,0)"/>
<path d="" fill="#303030" transform="translate(0,0)"/>
<path d="" fill="#333233" transform="translate(0,0)"/>
<path d="" fill="#2F302F" transform="translate(0,0)"/>
<path d="" fill="#2D292C" transform="translate(0,0)"/>
<path d="" fill="#2B2B2A" transform="translate(0,0)"/>
<path d="" fill="#2A2929" transform="translate(0,0)"/>
<path d="" fill="#262727" transform="translate(0,0)"/>
<path d="" fill="#2F2E2D" transform="translate(0,0)"/>
<path d="" fill="#313333" transform="translate(0,0)"/>
<path d="" fill="#2E2E2F" transform="translate(0,0)"/>
<path d="" fill="#2A2A29" transform="translate(0,0)"/>
<path d="" fill="#353635" transform="translate(0,0)"/>
<path d="" fill="#2E2E2C" transform="translate(0,0)"/>
<path d="" fill="#302F2E" transform="translate(0,0)"/>
<path d="" fill="#2A2929" transform="translate(0,0)"/>
<path d="" fill="#2B2A29" transform="translate(0,0)"/>
<path d="" fill="#303334" transform="translate(0,0)"/>
<path d="" fill="#343434" transform="translate(0,0)"/>
<path d="" fill="#2B2B2B" transform="translate(0,0)"/>
<path d="" fill="#313234" transform="translate(0,0)"/>
<path d="" fill="#2D2D2D" transform="translate(0,0)"/>
<path d="" fill="#2F3030" transform="translate(0,0)"/>
<path d="" fill="#2C2E2D" transform="translate(0,0)"/>
<path d="" fill="#2C2A28" transform="translate(0,0)"/>
<path d="" fill="#2E2E2C" transform="translate(0,0)"/>
<path d="" fill="#2B2B2B" transform="translate(0,0)"/>
<path d="" fill="#353636" transform="translate(0,0)"/>
<path d="" fill="#2D2E2C" transform="translate(0,0)"/>
<path d="" fill="#2A2B2C" transform="translate(0,0)"/>
<path d="" fill="#393838" transform="translate(0,0)"/>
<path d="" fill="#2B2A29" transform="translate(0,0)"/>
<path d="" fill="#343334" transform="translate(0,0)"/>
<path d="" fill="#353534" transform="translate(0,0)"/>
<path d="" fill="#343433" transform="translate(0,0)"/>
<path d="" fill="#373635" transform="translate(0,0)"/>
<path d="" fill="#292829" transform="translate(0,0)"/>
<path d="" fill="#333433" transform="translate(0,0)"/>
<path d="" fill="#312F2E" transform="translate(0,0)"/>
<path d="" fill="#353533" transform="translate(0,0)"/>
<path d="" fill="#353435" transform="translate(0,0)"/>
<path d="" fill="#363737" transform="translate(0,0)"/>
<path d="" fill="#373637" transform="translate(0,0)"/>
<path d="" fill="#333333" transform="translate(0,0)"/>
<path d="" fill="#343235" transform="translate(0,0)"/>
<path d="" fill="#313030" transform="translate(0,0)"/>
<path d="" fill="#30322E" transform="translate(0,0)"/>
<path d="" fill="#323334" transform="translate(0,0)"/>
<path d="" fill="#2F3131" transform="translate(0,0)"/>
<path d="" fill="#323433" transform="translate(0,0)"/>
<path d="" fill="#2C2C2C" transform="translate(0,0)"/>
<path d="" fill="#2D2C2C" transform="translate(0,0)"/>
<path d="" fill="#333233" transform="translate(0,0)"/>
<path d="" fill="#373737" transform="translate(0,0)"/>
<path d="" fill="#2C2D2B" transform="translate(0,0)"/>
<path d="" fill="#2F3030" transform="translate(0,0)"/>
<path d="" fill="#2F2D2D" transform="translate(0,0)"/>
<path d="" fill="#2D2D2E" transform="translate(0,0)"/>
<path d="" fill="#2C2B2C" transform="translate(0,0)"/>
<path d="" fill="#2F2E2F" transform="translate(0,0)"/>
<path d="" fill="#2E2C2D" transform="translate(0,0)"/>
<path d="" fill="#292B2A" transform="translate(0,0)"/>
<path d="" fill="#31312E" transform="translate(0,0)"/>
<path d="" fill="#2A2A2A" transform="translate(0,0)"/>
<path d="" fill="#2D302C" transform="translate(0,0)"/>
<path d="" fill="#2E2D2E" transform="translate(0,0)"/>
<path d="" fill="#2D2D2D" transform="translate(0,0)"/>
<path d="" fill="#2D2E2F" transform="translate(0,0)"/>
<path d="" fill="#2F2F2D" transform="translate(0,0)"/>
<path d="" fill="#2D2D2F" transform="translate(0,0)"/>
<path d="" fill="#2E2F2F" transform="translate(0,0)"/>
<path d="" fill="#2D302D" transform="translate(0,0)"/>
<path d="" fill="#2C2E2E" transform="translate(0,0)"/>
<path d="" fill="#2E2F2E" transform="translate(0,0)"/>
<path d="" fill="#2F3030" transform="translate(0,0)"/>
<path d="" fill="#30302F" transform="translate(0,0)"/>
<path d="" fill="#302D2F" transform="translate(0,0)"/>
<path d="" fill="#303130" transform="translate(0,0)"/>
<path d="" fill="#29292B" transform="translate(0,0)"/>
<path d="" fill="#2F2E2D" transform="translate(0,0)"/>
<path d="" fill="#2B2B2B" transform="translate(0,0)"/>
<path d="" fill="#312F2F" transform="translate(0,0)"/>
<path d="" fill="#32312F" transform="translate(0,0)"/>
<path d="" fill="#2C2E2E" transform="translate(0,0)"/>
<path d="" fill="#2D2F2C" transform="translate(0,0)"/>
<path d="" fill="#2C2D2C" transform="translate(0,0)"/>
<path d="" fill="#2F3031" transform="translate(0,0)"/>
<path d="" fill="#292A29" transform="translate(0,0)"/>
<path d="" fill="#2D2D2D" transform="translate(0,0)"/>
<path d="" fill="#2D2F2E" transform="translate(0,0)"/>
<path d="" fill="#313031" transform="translate(0,0)"/>
<path d="" fill="#2B2927" transform="translate(0,0)"/>
<path d="" fill="#272827" transform="translate(0,0)"/>
<path d="" fill="#262526" transform="translate(0,0)"/>
<path d="" fill="#272826" transform="translate(0,0)"/>
<path d="" fill="#272827" transform="translate(0,0)"/>
<path d="" fill="#2D2E2D" transform="translate(0,0)"/>
<path d="" fill="#272926" transform="translate(0,0)"/>
<path d="" fill="#282827" transform="translate(0,0)"/>
<path d="" fill="#272828" transform="translate(0,0)"/>
<path d="" fill="#272526" transform="translate(0,0)"/>
<path d="" fill="#2D2C2C" transform="translate(0,0)"/>
<path d="" fill="#2E2E2F" transform="translate(0,0)"/>
<path d="" fill="#2F302F" transform="translate(0,0)"/>
<path d="" fill="#302E2E" transform="translate(0,0)"/>
<path d="" fill="#2D2F2C" transform="translate(0,0)"/>
<path d="" fill="#2E2E2E" transform="translate(0,0)"/>
<path d="" fill="#2E2E2D" transform="translate(0,0)"/>
<path d="" fill="#2F302E" transform="translate(0,0)"/>
<path d="" fill="#31302D" transform="translate(0,0)"/>
<path d="" fill="#313333" transform="translate(0,0)"/>
<path d="" fill="#333535" transform="translate(0,0)"/>
<path d="" fill="#2D2D2E" transform="translate(0,0)"/>
<path d="" fill="#2D2D2D" transform="translate(0,0)"/>
<path d="" fill="#303131" transform="translate(0,0)"/>
<path d="" fill="#2F3030" transform="translate(0,0)"/>
<path d="" fill="#363738" transform="translate(0,0)"/>
<path d="" fill="#313232" transform="translate(0,0)"/>
<path d="" fill="#3A393A" transform="translate(0,0)"/>
<path d="" fill="#343635" transform="translate(0,0)"/>
<path d="" fill="#383939" transform="translate(0,0)"/>
<path d="" fill="#373739" transform="translate(0,0)"/>
<path d="" fill="#39393B" transform="translate(0,0)"/>
<path d="" fill="#363735" transform="translate(0,0)"/>
<path d="" fill="#383939" transform="translate(0,0)"/>
<path d="" fill="#363536" transform="translate(0,0)"/>
<path d="" fill="#363635" transform="translate(0,0)"/>
<path d="" fill="#3D3A3B" transform="translate(0,0)"/>
<path d="" fill="#383736" transform="translate(0,0)"/>
<path d="" fill="#383738" transform="translate(0,0)"/>
<path d="" fill="#3A3B3C" transform="translate(0,0)"/>
<path d="" fill="#3B3C3B" transform="translate(0,0)"/>
</svg>
