<svg version="1.1" id="Layer_1" xmlns="http://www.w3.org/2000/svg" xmlns:xlink="http://www.w3.org/1999/xlink" x="0px" y="0px"
	 width="100%" viewBox="0 0 1024 1024" enable-background="new 0 0 1024 1024" xml:space="preserve">
<path fill="#000000" opacity="1.000000" stroke="none" 
	d="
M428.564331,194.353241 
	C431.342163,195.892746 433.785828,195.008408 436.158966,194.336884 
	C462.416962,186.906540 489.126160,182.905792 516.467346,183.741425 
	C539.148193,184.434647 561.536194,187.324020 583.390381,193.538589 
	C590.763794,195.635330 596.784729,194.413071 602.930664,189.720703 
	C615.073547,180.449738 628.315796,173.702774 643.854248,171.227570 
	C674.848755,166.290298 708.926147,184.607956 721.183472,213.387085 
	C729.245361,232.315781 729.399353,251.195206 721.677429,270.103699 
	C719.955261,274.320679 720.342529,276.518250 724.205688,279.458252 
	C738.640259,290.443420 747.765442,305.035126 749.001892,323.300507 
	C750.004395,338.110565 744.575317,351.327209 735.520081,363.109039 
	C726.704956,374.578461 715.354797,383.415985 704.929749,393.215912 
	C700.797241,397.100616 696.763245,401.054504 693.225281,405.506805 
	C686.030884,414.560394 685.321960,424.196625 690.293335,434.492798 
	C696.466125,447.277069 704.951111,458.322052 715.487793,467.750580 
	C738.093628,487.978790 763.980652,501.794983 794.208740,506.313843 
	C818.946167,510.011902 841.780945,505.505737 858.599976,485.555756 
	C872.972046,468.508270 876.071777,448.886963 866.231445,428.200623 
	C856.892334,408.567810 832.685242,400.747864 815.196045,411.472626 
	C801.768494,419.706757 802.136169,437.733459 815.974487,445.298309 
	C818.574402,446.719604 821.494019,447.596527 824.326172,448.545380 
	C834.034607,451.797974 839.260803,458.132019 838.190857,465.489502 
	C837.172058,472.495270 828.959778,478.685425 819.983704,479.250946 
	C800.088440,480.504486 786.441772,470.695374 777.610474,453.986176 
	C762.535706,425.464203 778.203369,389.368958 810.195374,377.678406 
	C835.853455,368.302338 865.622070,376.245758 884.889221,397.361603 
	C900.059692,413.987854 907.294983,433.764709 906.014160,455.873322 
	C904.349915,484.600952 890.188721,507.000732 866.935669,523.539062 
	C847.539795,537.333923 825.635559,543.511047 801.934570,542.155029 
	C782.274719,541.030151 763.703613,535.230469 745.989258,526.704651 
	C718.104370,513.283936 693.453918,495.714233 675.515564,470.044495 
	C665.776001,456.107239 659.016418,440.990662 658.626526,423.358215 
	C658.241516,405.946899 665.768066,392.581818 677.787720,381.085938 
	C681.623657,377.417084 685.827271,374.132599 690.566040,370.069031 
	C684.981201,370.533661 680.127319,370.674347 675.357849,371.383087 
	C660.442993,373.599426 645.808838,371.079681 631.244751,368.654907 
	C610.271973,365.163177 589.574219,359.954071 568.004272,361.153198 
	C556.632141,361.785400 545.578979,364.054688 534.566345,366.465057 
	C520.074402,369.636963 505.728394,368.661346 491.483124,365.816650 
	C474.436646,362.412598 457.350677,360.172882 439.954163,361.277496 
	C426.809052,362.112213 414.036865,365.316315 401.136475,367.697784 
	C386.737793,370.355927 372.297821,372.865326 357.580719,372.197906 
	C350.801849,371.890442 344.054840,370.881409 336.462952,370.105621 
	C343.779236,376.519592 350.631439,382.472809 356.131531,389.791290 
	C363.572235,399.691925 368.104370,410.748596 368.016022,423.066498 
	C367.926483,435.544617 364.084473,447.286957 358.052124,458.251770 
	C343.508362,484.687561 321.059570,502.942810 295.757904,518.149902 
	C277.328979,529.226196 257.605103,537.144592 236.338196,540.771790 
	C188.917404,548.859680 142.011383,524.853638 125.117584,481.470825 
	C107.252464,435.593658 134.700912,384.988739 179.001099,375.271851 
	C211.196014,368.210144 244.867126,386.927856 253.641556,417.005646 
	C261.528625,444.041687 244.506531,472.992432 217.004684,478.763245 
	C209.769821,480.281372 202.320435,479.949677 195.681076,475.931763 
	C190.871002,473.020782 187.494781,468.864532 187.811081,462.925995 
	C188.140656,456.738281 191.419327,452.279266 197.200760,449.916687 
	C200.739365,448.470642 204.489426,447.521912 207.973328,445.966370 
	C215.064087,442.800415 220.382904,438.010254 220.671524,429.587067 
	C220.963623,421.062775 216.810532,415.004120 209.578232,410.884064 
	C190.937515,400.264862 166.317398,410.298981 158.119492,431.836090 
	C147.111298,460.756226 161.595978,491.553253 191.310852,502.740540 
	C206.633438,508.509277 222.219910,508.704193 237.947418,505.279694 
	C271.213562,498.036438 299.295074,481.746094 321.972015,456.309845 
	C327.878632,449.684509 332.486938,442.167999 336.357910,434.166626 
	C341.350342,423.847137 339.717682,414.774109 332.516479,405.952484 
	C324.652740,396.319214 315.145081,388.484924 306.012512,380.236694 
	C296.133972,371.314789 287.578064,361.429504 282.020660,349.240143 
	C270.204407,323.322845 279.703613,296.766724 299.840240,280.249847 
	C304.369141,276.535065 305.558411,273.874817 303.433289,268.019257 
	C288.261383,226.214371 312.571259,181.665588 355.776459,172.147751 
	C376.524323,167.577133 395.728088,172.380676 413.236298,184.269043 
	C418.196625,187.637192 423.240753,190.881927 428.564331,194.353241 
M536.208862,212.297180 
	C531.231201,211.953400 526.258606,211.450211 521.275024,211.291946 
	C490.879700,210.326645 461.227722,214.475784 432.464081,224.496231 
	C429.284241,225.604004 426.297638,225.388062 423.251587,224.107681 
	C417.462280,221.674194 412.844421,217.549789 408.115417,213.621323 
	C394.882629,202.628510 380.007507,196.512405 362.548492,198.315384 
	C351.828705,199.422379 342.731445,203.994186 335.443207,212.037842 
	C339.691956,210.629150 343.827728,209.220428 348.275116,208.429367 
	C377.797913,203.178146 401.093750,229.800201 395.650818,259.232422 
	C390.729584,285.843506 362.128143,305.189880 333.538757,295.409363 
	C331.849976,294.831604 330.192505,294.095520 328.245605,294.995514 
	C323.079376,297.383698 318.037079,299.950439 313.922119,303.971161 
	C302.946716,314.695160 304.418060,329.127411 317.534698,337.184326 
	C330.453735,345.119904 345.166077,345.579376 359.575531,345.448395 
	C375.886597,345.300110 391.908539,341.817078 407.777985,338.071655 
	C432.688660,332.192413 457.552551,330.451660 482.846588,336.370087 
	C501.619049,340.762604 520.698608,341.623474 539.700806,336.795624 
	C547.766174,334.746429 555.964233,333.214478 564.277893,332.772339 
	C580.670471,331.900604 596.789307,334.155334 612.846863,337.284149 
	C635.313049,341.661652 657.650879,347.445038 680.902344,344.715942 
	C690.377380,343.603821 699.655273,341.812653 707.965149,336.748566 
	C721.084351,328.753693 722.619385,314.695923 711.522827,304.145386 
	C708.119141,300.909149 704.246948,298.371948 700.119812,296.120087 
	C697.275574,294.568207 694.705933,294.282166 691.593445,295.347290 
	C682.755859,298.371643 673.672058,298.913696 664.593445,296.616974 
	C639.980713,290.390320 624.520874,265.281921 629.901733,240.496048 
	C635.215820,216.017609 657.927490,202.618896 681.967712,209.802734 
	C684.472839,210.551315 686.932495,211.451660 689.413269,212.281601 
	C686.879944,209.486038 684.262268,207.123077 681.293091,205.348297 
	C661.580505,193.565414 637.275818,195.989868 618.530823,211.488235 
	C614.808533,214.565842 611.229004,217.823532 607.416626,220.782898 
	C602.424072,224.658340 596.998840,226.236420 590.603882,224.149277 
	C573.176819,218.461517 555.354797,214.450775 536.208862,212.297180 
M679.292908,248.003387 
	C681.643860,246.258652 683.196167,243.956131 684.099792,241.185715 
	C686.725281,233.136078 679.231018,224.383774 671.045044,225.908005 
	C666.403503,226.772263 662.806641,229.222153 661.623352,233.768890 
	C660.417603,238.401871 660.805481,243.259109 664.717285,246.704727 
	C668.828552,250.326080 673.656738,250.745071 679.292908,248.003387 
M356.161835,226.236038 
	C350.766571,224.770706 345.921783,226.357346 342.999847,230.546616 
	C340.384979,234.295624 340.414612,241.705170 343.058319,245.171921 
	C346.080383,249.134796 352.299286,250.921326 357.031067,249.185913 
	C361.495087,247.548706 363.715149,243.492126 363.837433,237.604691 
	C363.948517,232.258987 361.300354,228.871231 356.161835,226.236038 
z"/>
<path fill="#000000" opacity="1.000000" stroke="none" 
	d="
M217.568329,602.567383 
	C202.241455,612.069702 194.827652,626.081299 194.677994,643.232361 
	C194.517731,661.599487 203.767609,681.141724 226.427017,685.181152 
	C238.457642,687.325989 254.345535,681.471924 259.152618,668.759644 
	C263.434906,657.435181 256.023254,646.024597 243.798813,645.270813 
	C236.093475,644.795715 231.563553,641.159485 230.792007,634.830078 
	C230.043762,628.692017 234.276230,622.906128 241.116226,620.716492 
	C253.551788,616.735718 271.975189,622.965698 281.649384,634.422974 
	C296.738373,652.293152 296.641479,674.796570 280.950928,694.176086 
	C269.760468,707.997498 255.214508,715.265198 237.315750,717.541199 
	C199.904373,722.298462 166.724548,688.601013 162.501831,655.368286 
	C157.106628,612.908081 182.095871,576.800598 220.624268,564.780701 
	C237.786804,559.426331 255.319458,555.381653 272.376068,549.627319 
	C307.550354,537.760681 339.912506,521.195618 366.069336,494.220551 
	C382.509705,477.265961 395.984161,458.062805 407.676727,437.576172 
	C409.819092,433.822479 412.114746,430.127045 414.667664,426.645233 
	C417.137451,423.276825 420.385376,420.900757 424.922302,422.416473 
	C429.776642,424.038208 432.497742,427.762756 432.204926,433.116241 
	C431.757996,441.288177 429.481628,449.143829 427.333069,457.005676 
	C417.457733,493.140320 400.656891,526.189148 382.437439,558.654297 
	C370.024933,580.772034 358.980469,603.523254 353.029816,628.409424 
	C348.358887,647.943726 347.822693,667.562012 351.574280,687.271118 
	C352.121368,690.145264 353.479706,692.864868 354.890503,696.870911 
	C354.215851,683.226624 355.133392,670.970215 358.218170,658.824219 
	C364.389069,634.526611 377.684174,614.118591 392.285553,594.309875 
	C414.671814,563.939697 434.901306,532.229187 451.174225,498.112396 
	C457.635040,484.566925 462.535950,470.386200 467.962097,456.418976 
	C469.531769,452.378571 471.310852,448.383972 475.829437,446.584137 
	C480.378265,444.772217 484.176453,446.244873 485.979584,450.780548 
	C487.663391,455.015930 487.845734,459.572113 488.163849,464.008911 
	C489.874878,487.870209 492.940582,511.572723 495.904877,535.297546 
	C498.604675,556.905518 501.454590,578.568665 500.177216,600.416382 
	C498.953827,621.340454 490.200256,638.837891 474.581573,652.859314 
	C473.729950,653.623901 472.842773,654.348877 472.060486,655.016907 
	C472.059418,657.414246 473.876831,658.342102 475.102448,659.581421 
	C500.844604,685.612244 497.180420,722.986328 469.956207,745.246765 
	C453.327972,758.843018 433.718384,765.565491 412.392456,764.049072 
	C377.091614,761.538879 349.855469,744.946167 332.184998,713.800171 
	C322.190948,696.184570 317.071564,677.169861 317.900269,656.900696 
	C318.876282,633.027405 325.336090,610.344177 334.239868,588.299255 
	C339.302887,575.763611 345.294403,563.692627 352.249817,552.095581 
	C353.496521,550.016907 354.483490,547.782410 356.195343,544.437927 
	C346.853607,549.904663 338.838867,554.877808 330.568146,559.380859 
	C307.193726,572.107178 282.335632,581.074707 256.778595,588.309265 
	C243.497437,592.068848 230.071442,595.552551 217.568329,602.567383 
M428.388367,596.857239 
	C418.346466,610.545532 407.856018,623.942871 399.226776,638.591553 
	C389.000397,655.951538 382.644165,674.235352 385.055023,695.024780 
	C388.622650,725.789185 421.880737,738.090454 446.436676,723.069519 
	C457.798004,716.119751 463.510406,702.061829 459.734528,690.829773 
	C457.742981,684.905518 453.439941,681.352905 447.416992,680.482239 
	C441.838562,679.675903 439.100739,683.621826 436.987091,688.086182 
	C434.988983,692.306519 431.805328,695.223206 426.952118,695.067261 
	C422.152496,694.913025 419.109344,691.806580 417.075348,687.682495 
	C415.669556,684.832153 414.778442,681.899597 414.656525,678.618225 
	C414.150482,664.995972 420.786072,655.078430 430.972198,647.155029 
	C437.005890,642.461670 443.553009,638.434753 449.726074,633.912720 
	C459.969421,626.409180 466.139709,616.288025 468.852509,603.890564 
	C472.578674,586.862488 470.697052,569.777161 469.344666,552.743530 
	C469.052551,549.064148 469.846558,544.798889 466.998962,540.731506 
	C454.486420,559.881958 442.090851,578.388367 428.388367,596.857239 
z"/>
<path fill="#000000" opacity="1.000000" stroke="none" 
	d="
M707.690918,652.521484 
	C709.872925,675.187378 704.113525,695.612000 692.976685,714.553040 
	C677.748291,740.452698 655.613037,757.085449 625.788696,762.796448 
	C594.836426,768.723450 559.429932,754.474121 543.562439,730.193909 
	C528.685486,707.429443 530.680237,679.689026 549.616760,660.022034 
	C553.124756,656.378723 553.141418,654.326172 549.465088,650.810730 
	C533.442993,635.490051 526.285217,616.232483 525.787659,594.365662 
	C525.267517,571.506836 528.879578,548.966370 531.299866,526.327576 
	C533.435791,506.348938 536.708496,486.494232 537.836731,466.405212 
	C538.051086,462.588684 538.298340,458.749908 538.924500,454.986969 
	C539.623535,450.785736 540.881958,446.721954 545.985168,445.813080 
	C550.723938,444.969147 555.029358,447.206940 557.267456,452.140839 
	C559.119141,456.223022 560.602783,460.487244 562.031433,464.743988 
	C575.560242,505.051605 596.079590,541.734863 620.069031,576.602295 
	C630.361389,591.561707 641.519714,605.922363 651.139404,621.348511 
	C662.329041,639.292297 669.120178,658.730530 671.404907,679.808838 
	C672.012817,685.416809 672.466431,690.954834 672.059937,696.606018 
	C675.590271,687.928955 677.175659,678.836975 677.648071,669.603577 
	C678.871216,645.697083 673.153137,623.060425 664.438232,601.048035 
	C655.393921,578.203552 642.526794,557.282043 631.312744,535.529053 
	C620.083496,513.746460 609.649353,491.606537 602.158997,468.218414 
	C598.863037,457.926849 595.764160,447.551056 594.019714,436.843384 
	C593.558350,434.011475 593.619080,431.213470 594.735107,428.491669 
	C597.457642,421.851440 603.426392,420.022980 609.299500,424.078613 
	C612.125732,426.030212 613.885925,428.854156 615.554626,431.762787 
	C625.093323,448.389862 634.997803,464.736938 647.167175,479.671936 
	C673.376892,511.838135 706.594482,533.599121 745.373901,547.604553 
	C765.770264,554.970703 787.085999,559.254028 807.429382,566.657898 
	C827.755798,574.055664 844.420471,586.220154 855.215637,605.533447 
	C881.193237,652.009155 854.143494,706.510071 807.673157,716.642822 
	C775.406311,723.678528 743.349487,704.313660 735.375610,674.293823 
	C727.867798,646.028503 749.843262,618.439880 779.092773,619.731384 
	C783.932678,619.945068 788.211792,621.729980 791.753540,624.984619 
	C795.217407,628.167786 796.582764,632.248230 795.115540,636.777466 
	C793.618347,641.399536 790.217651,644.192200 785.399414,645.137756 
	C784.913452,645.233093 784.403625,645.214661 783.904297,645.233032 
	C776.529602,645.503784 770.313171,648.155151 767.454163,655.290222 
	C764.477783,662.718201 766.291260,669.745911 771.436523,675.775024 
	C782.190552,688.376343 804.422546,688.924194 817.459961,676.999023 
	C840.710205,655.732300 835.027527,616.908386 806.584900,602.399902 
	C792.197937,595.061096 776.459290,591.854004 761.124512,587.461426 
	C730.824402,578.782104 701.979553,566.998352 675.982849,548.867126 
	C674.918030,548.124512 673.669128,547.645752 671.060059,546.296082 
	C689.966858,580.236877 703.973328,614.408020 707.690918,652.521484 
M557.966064,607.499695 
	C561.618286,621.798035 571.169373,631.440735 583.011597,639.296204 
	C590.508057,644.268921 598.223877,649.029663 603.799011,656.303345 
	C610.458740,664.992065 614.440369,674.327515 610.166565,685.496216 
	C608.159790,690.740417 604.879822,694.729675 599.108521,694.964905 
	C593.748840,695.183411 590.529541,691.596252 588.153748,686.921448 
	C584.182434,679.107056 576.383911,677.886597 570.009216,683.915344 
	C563.861816,689.729248 564.064636,697.144348 565.916931,704.396179 
	C572.105591,728.625732 607.823425,737.929138 626.986755,720.339355 
	C640.713745,707.739563 643.780090,691.921143 640.258545,674.238525 
	C636.391846,654.822693 626.601135,638.207214 615.451721,622.340637 
	C597.547058,596.860901 578.518127,572.164429 562.252258,545.548035 
	C561.411255,544.171997 560.578857,542.658630 557.901306,541.964844 
	C555.110718,563.690063 553.228577,585.159424 557.966064,607.499695 
z"/>
<path fill="#000000" opacity="1.000000" stroke="none" 
	d="
M458.848694,295.690186 
	C455.987549,286.362000 459.656616,278.703156 468.073700,275.727112 
	C475.688965,273.034607 483.987823,276.803497 487.360474,284.486084 
	C490.404602,291.420288 486.992004,300.047699 479.909912,303.321747 
	C471.397308,307.257141 463.645691,304.563110 458.848694,295.690186 
z"/>
<path fill="#000000" opacity="1.000000" stroke="none" 
	d="
M549.626831,304.903442 
	C542.992432,302.857208 538.829529,298.860107 537.803833,292.319122 
	C536.883484,286.449829 538.859436,281.446075 543.815430,277.970642 
	C549.677979,273.859436 555.946960,273.824890 561.496399,277.626953 
	C566.559265,281.095642 569.331909,287.895569 567.865723,293.247772 
	C566.041748,299.906036 560.562500,304.486267 553.496887,305.167236 
	C552.354370,305.277313 551.181763,305.074615 549.626831,304.903442 
z"/>
</svg>