<svg width="1964" height="418" viewBox="0 0 1964 418" fill="none" xmlns="http://www.w3.org/2000/svg">
<path d="M295.601 285.683C299.14 306.342 317.253 333.693 339.505 336.704C352.983 338.525 370.821 327.837 379.231 344.239C390.834 366.885 361.094 382.665 342.445 384.194C304.027 387.331 272.593 366.152 254.519 333.504C248.016 321.752 244.43 308.352 236.548 297.506C233.001 324.763 233.229 358.065 254.259 378.685C261.739 386.023 273.381 386.583 274.926 398.997C275.698 405.216 272.38 411.916 266.886 414.974C252.919 422.746 230.628 408.826 219.995 399.588C215.959 396.081 210.938 390.989 208.18 386.575H207.021C196.072 400.132 177.005 416.18 158.869 417.221C146.391 417.93 138.737 409.843 140.542 397.287C141.859 388.12 150.986 386.685 156.945 382.176C178.503 365.86 182.31 333.181 179.843 308.155C179.646 306.153 179.055 298.026 177.872 297.514C164.772 323.588 155.96 348.906 131.746 367.2C108.123 385.038 66.0006 393.03 42.0387 372.008C25.5255 357.521 33.7624 331.187 56.5656 334.607C58.9933 334.97 61.4131 336.594 64.4951 336.917C92.9498 339.881 114.91 311.268 119.213 285.698L108.438 293.423C81.1422 310.985 43.3866 312.703 18.4158 290.034C-3.16566 270.446 -8.24967 231.579 16.595 212.52C29.4903 202.62 56.2818 200.437 55.9192 222.105C55.7616 231.768 47.4774 235.252 46.7601 241.133C45.1916 253.988 57.204 257.291 67.6716 256.558C87.2746 255.187 105.743 232.383 107.39 213.553C109.077 194.336 99.3895 183.53 93.2178 167.071C69.453 103.746 99.9728 32.6013 163.109 8.41875C256.576 -27.3822 348.829 56.6814 325.939 153.278C318.199 185.934 289.067 212.851 323.543 244.727C333.569 253.996 358.343 264.755 367.163 248.936C372.72 238.973 360.069 233.353 359.36 223.059C357.791 200.248 386.254 202.447 399.559 213.561C423.592 233.621 417.609 271.597 395.618 290.822C370.45 312.837 334.35 310.535 307.172 293.423C305.485 292.359 296.641 284.871 295.609 285.698L295.601 285.683ZM179.205 158.094C179.205 147.729 170.81 139.334 160.461 139.334C150.111 139.334 141.717 147.736 141.717 158.094C141.717 168.451 150.111 176.853 160.461 176.853C170.81 176.853 179.205 168.451 179.205 158.094ZM273.357 158.038C273.357 147.666 264.955 139.255 254.59 139.255C244.225 139.255 235.822 147.666 235.822 158.038C235.822 168.411 244.225 176.822 254.59 176.822C264.955 176.822 273.357 168.411 273.357 158.038Z" fill="black"/>
<path d="M1723.13 338.778C1709.06 338.778 1700.45 330.163 1700.45 315.217V102.644C1700.45 87.6985 1709.06 79.083 1723.13 79.083C1737.37 79.083 1745.81 87.6985 1745.81 102.644V315.217C1745.81 330.163 1737.37 338.778 1723.13 338.778Z" fill="black"/>
<path d="M1470.64 338.778C1456.75 338.778 1447.79 330.69 1447.79 317.855C1447.79 314.338 1448.67 309.415 1450.78 303.965L1524.45 103.699C1530.6 86.8194 1540.8 79.083 1557.33 79.083C1574.03 79.083 1584.23 86.4677 1590.56 103.523L1664.4 303.965C1666.51 309.767 1667.39 313.811 1667.39 317.855C1667.39 330.163 1657.9 338.778 1644.71 338.778C1632.4 338.778 1625.55 333.152 1621.5 319.613L1604.8 271.085H1510.03L1493.33 319.261C1489.11 332.976 1482.43 338.778 1470.64 338.778ZM1520.76 235.217H1593.72L1557.68 126.908H1556.45L1520.76 235.217Z" fill="black"/>
<path d="M1388.71 337.724C1374.47 337.724 1363.39 326.647 1363.39 312.405C1363.39 298.339 1374.47 287.086 1388.71 287.086C1402.77 287.086 1413.85 298.339 1413.85 312.405C1413.85 326.647 1402.77 337.724 1388.71 337.724Z" fill="black"/>
<path d="M1192.13 335.789C1178.06 335.789 1169.45 326.998 1169.45 312.228V102.644C1169.45 87.6985 1178.06 79.083 1192.13 79.083C1206.37 79.083 1214.81 87.6985 1214.81 102.644V297.459H1312.04C1324.35 297.459 1332.79 304.844 1332.79 316.624C1332.79 328.404 1324.53 335.789 1312.04 335.789H1192.13Z" fill="black"/>
<path d="M939.653 338.778C925.763 338.778 916.795 330.69 916.795 317.855C916.795 314.338 917.675 309.415 919.784 303.965L993.455 103.699C999.609 86.8194 1009.81 79.083 1026.33 79.083C1043.04 79.083 1053.24 86.4677 1059.57 103.523L1133.41 303.965C1135.52 309.767 1136.4 313.811 1136.4 317.855C1136.4 330.163 1126.91 338.778 1113.72 338.778C1101.41 338.778 1094.56 333.152 1090.51 319.613L1073.81 271.085H979.038L962.334 319.261C958.114 332.976 951.433 338.778 939.653 338.778ZM989.763 235.217H1062.73L1026.69 126.908H1025.46L989.763 235.217Z" fill="black"/>
<path d="M698.768 338.778C684.878 338.778 675.911 330.69 675.911 317.855C675.911 314.338 676.79 309.415 678.9 303.965L752.571 103.699C758.725 86.8194 768.923 79.083 785.451 79.083C802.154 79.083 812.352 86.4677 818.682 103.523L892.528 303.965C894.638 309.767 895.517 313.811 895.517 317.855C895.517 330.163 886.023 338.778 872.836 338.778C860.528 338.778 853.671 333.152 849.627 319.613L832.924 271.085H738.153L721.45 319.261C717.23 332.976 710.549 338.778 698.768 338.778ZM748.879 235.217H821.846L785.802 126.908H784.571L748.879 235.217Z" fill="black"/>
<path d="M533.141 338.779C519.075 338.779 510.459 330.164 510.459 315.219V105.634C510.459 90.8645 519.075 82.0732 533.141 82.0732H654.461C666.944 82.0732 675.208 89.4579 675.208 101.238C675.208 113.019 666.769 120.403 654.461 120.403H555.823V195.305H645.318C657.274 195.305 665.186 202.338 665.186 213.767C665.186 225.196 657.274 232.229 645.318 232.229H555.823V315.219C555.823 330.164 547.383 338.779 533.141 338.779Z" fill="black"/>
<path d="M1925.27 153.225L1926.15 142.886C1929.71 142.886 1932.75 142.886 1935.26 142.886C1937.77 142.828 1939.88 142.74 1941.57 142.623C1943.32 142.448 1944.75 142.214 1945.86 141.922C1946.97 141.63 1947.91 141.309 1948.67 140.959C1949.89 140.316 1950.89 139.498 1951.65 138.505C1952.41 137.512 1952.96 136.198 1953.31 134.563C1953.66 132.869 1953.84 130.766 1953.84 128.254C1953.84 125.509 1953.57 123.143 1953.05 121.157C1952.52 119.113 1951.73 117.565 1950.68 116.514C1949.69 115.404 1948.49 114.849 1947.09 114.849C1945.98 114.849 1944.96 115.229 1944.02 115.988C1943.15 116.747 1942.42 117.769 1941.83 119.055C1941.31 120.281 1941.04 121.595 1941.04 122.997C1941.04 123.932 1941.25 124.75 1941.66 125.45C1942.12 126.151 1942.86 126.706 1943.85 127.115C1944.84 127.466 1946.1 127.641 1947.62 127.641C1949.08 127.641 1950.57 127.466 1952.08 127.115C1953.6 126.765 1954.98 126.297 1956.2 125.713L1956.55 134.563C1955.62 135.205 1954.54 135.76 1953.31 136.227C1952.14 136.695 1950.89 137.045 1949.54 137.279C1948.2 137.512 1946.86 137.629 1945.51 137.629C1942.48 137.629 1939.85 137.191 1937.63 136.315C1935.47 135.439 1933.8 134.095 1932.63 132.285C1931.46 130.415 1930.88 128.05 1930.88 125.188C1930.88 122.734 1931.29 120.31 1932.11 117.915C1932.93 115.462 1934.06 113.243 1935.52 111.257C1937.04 109.212 1938.82 107.606 1940.87 106.438C1942.97 105.211 1945.28 104.598 1947.79 104.598C1951.47 104.598 1954.51 105.708 1956.9 107.927C1959.3 110.088 1961.08 113.009 1962.25 116.689C1963.42 120.369 1964 124.37 1964 128.692C1964 132.956 1963.33 136.636 1961.98 139.732C1960.64 142.769 1958.8 145.223 1956.46 147.092C1955.12 148.318 1953.52 149.34 1951.65 150.158C1949.78 150.918 1947.62 151.531 1945.16 151.998C1942.71 152.465 1939.85 152.787 1936.58 152.962C1933.3 153.137 1929.54 153.225 1925.27 153.225ZM1947.09 96.0991C1945.51 96.0991 1944.17 95.5734 1943.06 94.522C1941.95 93.4122 1941.39 92.0687 1941.39 90.4916C1941.39 88.9146 1941.95 87.5711 1943.06 86.4613C1944.17 85.2931 1945.51 84.709 1947.09 84.709C1948.61 84.709 1949.92 85.2931 1951.03 86.4613C1952.14 87.5711 1952.7 88.9146 1952.7 90.4916C1952.7 92.0687 1952.14 93.4122 1951.03 94.522C1949.92 95.5734 1948.61 96.0991 1947.09 96.0991Z" fill="black"/>
<path d="M1925.22 153.226C1920.08 153.226 1916.11 152.701 1913.3 151.649C1910.56 150.539 1908.63 148.846 1907.52 146.568C1906.47 144.231 1905.89 141.252 1905.77 137.631L1903.93 89.2666H1914.27L1916.11 132.987C1916.22 135.732 1916.49 137.806 1916.9 139.208C1917.36 140.61 1918.3 141.573 1919.7 142.099C1921.1 142.625 1923.23 142.888 1926.1 142.888C1927.97 142.888 1929.31 143.384 1930.13 144.377C1930.94 145.312 1931.35 146.48 1931.35 147.882C1931.35 149.342 1930.8 150.598 1929.69 151.649C1928.64 152.701 1927.15 153.226 1925.22 153.226Z" fill="black"/>
<path d="M1851.26 153.224L1852.14 142.885C1855.23 142.885 1857.63 142.856 1859.32 142.797C1861.02 142.739 1862.27 142.681 1863.09 142.622C1863.91 142.505 1864.55 142.418 1865.02 142.359C1864.26 141.775 1863.32 140.899 1862.21 139.731C1861.1 138.563 1860.11 137.073 1859.23 135.262C1858.42 133.452 1858.01 131.261 1858.01 128.691C1858.01 125.245 1858.86 122.208 1860.55 119.579C1862.3 116.951 1864.67 114.906 1867.65 113.446C1870.62 111.927 1874.01 111.168 1877.81 111.168C1879.44 111.168 1881.05 111.285 1882.63 111.518C1884.21 111.752 1885.78 112.103 1887.36 112.57L1885.61 122.383C1884.44 122.091 1883.21 121.857 1881.93 121.682C1880.64 121.507 1879.47 121.419 1878.42 121.419C1876.44 121.419 1874.68 121.77 1873.17 122.47C1871.65 123.171 1870.48 124.135 1869.66 125.362C1868.84 126.53 1868.43 127.961 1868.43 129.655C1868.43 130.823 1868.67 131.933 1869.14 132.984C1869.6 133.977 1870.22 134.883 1870.98 135.7C1871.73 136.518 1872.55 137.219 1873.43 137.803C1874.36 138.329 1875.27 138.767 1876.14 139.118C1877.08 139.468 1877.87 139.672 1878.51 139.731C1879.74 139.38 1880.79 139.088 1881.66 138.855C1882.54 138.563 1883.42 138.271 1884.29 137.979C1885.23 137.628 1886.28 137.219 1887.45 136.752C1888.62 136.226 1890.1 135.584 1891.92 134.824L1895.25 144.462C1890.75 146.565 1886.28 148.259 1881.84 149.544C1877.4 150.829 1872.7 151.763 1867.73 152.348C1862.83 152.932 1857.34 153.224 1851.26 153.224Z" fill="black"/>
<path d="M1786.46 151.299C1786.46 149.955 1786.58 148.407 1786.81 146.655C1787.05 144.903 1787.46 142.975 1788.04 140.873C1788.68 138.711 1789.56 136.375 1790.67 133.863L1799.78 137.105C1799.14 138.857 1798.58 140.464 1798.12 141.924C1797.65 143.384 1797.3 144.757 1797.06 146.042C1796.89 147.327 1796.8 148.554 1796.8 149.722C1796.8 152.525 1797.5 154.92 1798.9 156.906C1800.31 158.892 1802.2 160.411 1804.6 161.462C1806.99 162.514 1809.68 163.039 1812.66 163.039C1817.92 163.039 1821.98 162.163 1824.84 160.411C1827.7 158.659 1829.69 156.089 1830.8 152.701C1831.91 149.254 1832.34 145.078 1832.11 140.172L1830.27 89.2666H1840.7L1842.1 131.848C1842.22 134.769 1842.65 137.047 1843.41 138.682C1844.17 140.259 1845.28 141.369 1846.74 142.012C1848.2 142.596 1850.01 142.888 1852.17 142.888C1854.04 142.888 1855.36 143.384 1856.12 144.377C1856.94 145.312 1857.34 146.48 1857.34 147.882C1857.34 149.342 1856.79 150.598 1855.68 151.649C1854.63 152.701 1853.17 153.226 1851.3 153.226C1849.84 153.226 1848.41 153.022 1847.01 152.613C1845.6 152.204 1844.32 151.62 1843.15 150.861C1842.04 150.101 1841.08 149.138 1840.26 147.969C1839.44 146.801 1838.89 145.429 1838.59 143.851L1842.45 143.326C1842.39 148.174 1841.72 152.438 1840.43 156.118C1839.21 159.798 1837.37 162.893 1834.91 165.405C1832.46 167.917 1829.34 169.815 1825.54 171.1C1821.8 172.385 1817.39 173.028 1812.31 173.028C1808.81 173.028 1805.48 172.56 1802.32 171.626C1799.23 170.75 1796.48 169.377 1794.09 167.508C1791.75 165.697 1789.88 163.448 1788.48 160.761C1787.13 158.074 1786.46 154.92 1786.46 151.299Z" fill="black"/>
</svg>
