<?xml version="1.0" encoding="UTF-8"?>
<svg width="1964" height="418" viewBox="0 0 1964 418" fill="none" xmlns="http://www.w3.org/2000/svg">
  <!-- octopus / toad icon -->
  <path d="M295.601 285.683C299.14 306.342 317.253 333.693 339.505 336.704C352.983 338.525 370.821 327.837 379.231 344.239C390.834 366.885 361.094 382.665 342.445 384.194C304.027 387.331 272.593 366.152 254.519 333.504C248.016 321.752 244.43 308.352 236.548 297.506C233.001 324.763 233.229 358.065 254.259 378.685C261.739 386.023 273.381 386.583 274.926 398.997C275.698 405.216 272.38 411.916 266.886 414.974C252.919 422.746 230.628 408.826 219.995 399.588C215.959 396.081 210.938 390.989 208.18 386.575H207.021C196.072 400.132 177.005 416.18 158.869 417.221C146.391 417.93 138.737 409.843 140.542 397.287C141.859 388.12 150.986 386.685 156.945 382.176C178.503 365.86 182.31 333.181 179.843 308.155C179.646 306.153 179.055 298.026 177.872 297.514C164.772 323.588 155.96 348.906 131.746 367.2C108.123 385.038 66.0006 393.03 42.0387 372.008C25.5255 357.521 33.7624 331.187 56.5656 334.607C58.9933 334.97 61.4131 336.594 64.4951 336.917C92.9498 339.881 114.91 311.268 119.213 285.698L108.438 293.423C81.1422 310.985 43.3866 312.703 18.4158 290.034C-3.16566 270.446 -8.24967 231.579 16.595 212.52C29.4903 202.62 56.2818 200.437 55.9192 222.105C55.7616 231.768 47.4774 235.252 46.7601 241.133C45.1916 253.988 57.204 257.291 67.6716 256.558C87.2746 255.187 105.743 232.383 107.39 213.553C109.077 194.336 99.3895 183.53 93.2178 167.071C69.453 103.746 99.9728 32.6013 163.109 8.41875C256.576 -27.3822 348.829 56.6814 325.939 153.278C318.199 185.934 289.067 212.851 323.543 244.727C333.569 253.996 358.343 264.755 367.163 248.936C372.72 238.973 360.069 233.353 359.36 223.059C357.791 200.248 386.254 202.447 399.559 213.561C423.592 233.621 417.609 271.597 395.618 290.822C370.45 312.837 334.35 310.535 307.172 293.423C305.485 292.359 296.641 284.871 295.609 285.698L295.601 285.683ZM179.205 158.094C179.205 147.729 170.81 139.334 160.461 139.334C150.111 139.334 141.717 147.736 141.717 158.094C141.717 168.451 150.111 176.853 160.461 176.853C170.81 176.853 179.205 168.451 179.205 158.094ZM273.357 158.038C273.357 147.666 264.955 139.255 254.59 139.255C244.225 139.255 235.822 147.666 235.822 158.038C235.822 168.411 244.225 176.822 254.59 176.822C264.955 176.822 273.357 168.411 273.357 158.038Z" fill="black"/>

  <!-- company name -->
  <text x="430" y="338"
        font-family="Arial, Helvetica, sans-serif"
        font-size="250"
        font-weight="bold"
        fill="black">MARIETE.AI</text>
</svg>
